<svg width="345" height="54" viewBox="0 0 345 54" fill="none" xmlns="http://www.w3.org/2000/svg">
<rect width="345" height="54" rx="10" fill="#1877F2"/>
<rect x="22.5" width="301" height="54" rx="10" fill="#1877F2"/>
<rect width="24" height="24" transform="translate(37.5 15)" fill="#1877F2"/>
<path d="M61 27.0699C61 20.7186 55.8513 15.5699 49.5 15.5699C43.1487 15.5699 38 20.7186 38 27.0699C38 32.8099 42.2054 37.5674 47.7031 38.4302V30.3941H44.7832V27.0699H47.7031V24.5363C47.7031 21.6541 49.42 20.0621 52.0468 20.0621C53.305 20.0621 54.6211 20.2867 54.6211 20.2867V23.1168H53.171C51.7424 23.1168 51.2969 24.0032 51.2969 24.9127V27.0699H54.4863L53.9765 30.3941H51.2969V38.4302C56.7946 37.5674 61 32.8099 61 27.0699Z" fill="white"/>
<path d="M77.3984 25.9199C77.3984 23.4069 78.0723 21.4701 79.4199 20.1094C80.5918 18.9245 82.0827 18.332 83.8926 18.332C86.3145 18.332 88.0853 19.1263 89.2051 20.7148C89.8236 21.6068 90.1556 22.502 90.2012 23.4004H87.1934C86.998 22.7103 86.7474 22.1895 86.4414 21.8379C85.8945 21.2129 85.084 20.9004 84.0098 20.9004C82.916 20.9004 82.0534 21.3431 81.4219 22.2285C80.7904 23.1074 80.4746 24.3542 80.4746 25.9688C80.4746 27.5833 80.8066 28.7943 81.4707 29.6016C82.1413 30.4023 82.9909 30.8027 84.0195 30.8027C85.0742 30.8027 85.8783 30.4577 86.4316 29.7676C86.7376 29.3965 86.9915 28.8398 87.1934 28.0977H90.1719C89.9115 29.6667 89.2441 30.9427 88.1699 31.9258C87.1022 32.9089 85.7318 33.4004 84.0586 33.4004C81.9883 33.4004 80.3607 32.7363 79.1758 31.4082C77.9909 30.0736 77.3984 28.2441 77.3984 25.9199ZM97.0273 31.0371C97.8411 31.0371 98.4661 30.7474 98.9023 30.168C99.3385 29.5885 99.5566 28.765 99.5566 27.6973C99.5566 26.6296 99.3385 25.8092 98.9023 25.2363C98.4661 24.6569 97.8411 24.3672 97.0273 24.3672C96.2135 24.3672 95.5853 24.6569 95.1426 25.2363C94.7064 25.8092 94.4883 26.6296 94.4883 27.6973C94.4883 28.765 94.7064 29.5885 95.1426 30.168C95.5853 30.7474 96.2135 31.0371 97.0273 31.0371ZM102.477 27.6973C102.477 29.2598 102.027 30.5977 101.129 31.7109C100.23 32.8177 98.8665 33.3711 97.0371 33.3711C95.2077 33.3711 93.8438 32.8177 92.9453 31.7109C92.0469 30.5977 91.5977 29.2598 91.5977 27.6973C91.5977 26.1608 92.0469 24.8294 92.9453 23.7031C93.8438 22.5768 95.2077 22.0137 97.0371 22.0137C98.8665 22.0137 100.23 22.5768 101.129 23.7031C102.027 24.8294 102.477 26.1608 102.477 27.6973ZM110.377 22.1016C111.477 22.1016 112.376 22.3913 113.072 22.9707C113.775 23.5436 114.127 24.4974 114.127 25.832V33H111.275V26.5254C111.275 25.9655 111.201 25.5358 111.051 25.2363C110.777 24.6895 110.257 24.416 109.488 24.416C108.544 24.416 107.896 24.8164 107.545 25.6172C107.363 26.0404 107.271 26.5807 107.271 27.2383V33H104.498V22.375H107.184V23.9277C107.542 23.3809 107.88 22.987 108.199 22.7461C108.772 22.3164 109.498 22.1016 110.377 22.1016ZM115.611 24.4355V22.4531H117.096V19.4844H119.85V22.4531H121.578V24.4355H119.85V30.0605C119.85 30.4967 119.905 30.7702 120.016 30.8809C120.126 30.985 120.465 31.0371 121.031 31.0371C121.116 31.0371 121.204 31.0371 121.295 31.0371C121.393 31.0306 121.487 31.0241 121.578 31.0176V33.0977L120.26 33.1465C118.945 33.1921 118.046 32.9642 117.564 32.4629C117.252 32.1439 117.096 31.6523 117.096 30.9883V24.4355H115.611ZM126.227 21.0859H123.404V18.5176H126.227V21.0859ZM123.404 22.3555H126.227V33H123.404V22.3555ZM134.83 22.1016C135.93 22.1016 136.829 22.3913 137.525 22.9707C138.229 23.5436 138.58 24.4974 138.58 25.832V33H135.729V26.5254C135.729 25.9655 135.654 25.5358 135.504 25.2363C135.23 24.6895 134.71 24.416 133.941 24.416C132.997 24.416 132.35 24.8164 131.998 25.6172C131.816 26.0404 131.725 26.5807 131.725 27.2383V33H128.951V22.375H131.637V23.9277C131.995 23.3809 132.333 22.987 132.652 22.7461C133.225 22.3164 133.951 22.1016 134.83 22.1016ZM143.932 22.3555V28.7715C143.932 29.377 144.003 29.8327 144.146 30.1387C144.4 30.679 144.898 30.9492 145.641 30.9492C146.591 30.9492 147.242 30.5651 147.594 29.7969C147.776 29.3802 147.867 28.8301 147.867 28.1465V22.3555H150.689V33H147.984V31.4961C147.958 31.5286 147.893 31.6263 147.789 31.7891C147.685 31.9518 147.561 32.0951 147.418 32.2188C146.982 32.6094 146.559 32.8763 146.148 33.0195C145.745 33.1628 145.27 33.2344 144.723 33.2344C143.147 33.2344 142.086 32.668 141.539 31.5352C141.233 30.9102 141.08 29.9889 141.08 28.7715V22.3555H143.932ZM157.584 24.3672C156.939 24.3672 156.438 24.569 156.08 24.9727C155.729 25.3763 155.507 25.9232 155.416 26.6133H159.742C159.697 25.8776 159.472 25.321 159.068 24.9434C158.671 24.5592 158.176 24.3672 157.584 24.3672ZM157.584 22.0723C158.469 22.0723 159.267 22.2383 159.977 22.5703C160.686 22.9023 161.272 23.4264 161.734 24.1426C162.151 24.7741 162.421 25.5065 162.545 26.3398C162.617 26.8281 162.646 27.5312 162.633 28.4492H155.348C155.387 29.5169 155.722 30.2656 156.354 30.6953C156.738 30.9622 157.2 31.0957 157.74 31.0957C158.313 31.0957 158.779 30.9329 159.137 30.6074C159.332 30.4316 159.505 30.1875 159.654 29.875H162.496C162.424 30.5065 162.096 31.1478 161.51 31.7988C160.598 32.834 159.322 33.3516 157.682 33.3516C156.327 33.3516 155.133 32.9154 154.098 32.043C153.062 31.1706 152.545 29.7513 152.545 27.7852C152.545 25.9427 153.01 24.5299 153.941 23.5469C154.879 22.5638 156.093 22.0723 157.584 22.0723ZM175.104 22.3555H177.926L179.547 30.0215L181.207 22.3555H184.107L181.021 33H178.16L176.49 25.2461L174.801 33H171.91L168.922 22.3555H171.91L173.57 29.9922L175.104 22.3555ZM188.512 21.0859H185.689V18.5176H188.512V21.0859ZM185.689 22.3555H188.512V33H185.689V22.3555ZM190.123 24.4355V22.4531H191.607V19.4844H194.361V22.4531H196.09V24.4355H194.361V30.0605C194.361 30.4967 194.417 30.7702 194.527 30.8809C194.638 30.985 194.977 31.0371 195.543 31.0371C195.628 31.0371 195.715 31.0371 195.807 31.0371C195.904 31.0306 195.999 31.0241 196.09 31.0176V33.0977L194.771 33.1465C193.456 33.1921 192.558 32.9642 192.076 32.4629C191.764 32.1439 191.607 31.6523 191.607 30.9883V24.4355H190.123ZM203.746 22.082C204.404 22.082 204.999 22.196 205.533 22.4238C206.074 22.6517 206.516 23 206.861 23.4688C207.154 23.8659 207.333 24.276 207.398 24.6992C207.464 25.1159 207.496 25.7995 207.496 26.75V33H204.654V26.5254C204.654 25.9525 204.557 25.4902 204.361 25.1387C204.107 24.6439 203.626 24.3965 202.916 24.3965C202.18 24.3965 201.62 24.6439 201.236 25.1387C200.859 25.627 200.67 26.3268 200.67 27.2383V33H197.896V18.6543H200.67V23.7422C201.074 23.1237 201.539 22.694 202.066 22.4531C202.6 22.2057 203.16 22.082 203.746 22.082ZM215.895 18.625H226.1V21.1543H218.883V24.4648H225.201V26.9648H218.883V33H215.895V18.625ZM233.766 27.8242C233.59 27.9349 233.411 28.026 233.229 28.0977C233.053 28.1628 232.809 28.2246 232.496 28.2832L231.871 28.4004C231.285 28.5046 230.865 28.6315 230.611 28.7812C230.182 29.0352 229.967 29.429 229.967 29.9629C229.967 30.4382 230.097 30.7832 230.357 30.998C230.624 31.2064 230.947 31.3105 231.324 31.3105C231.923 31.3105 232.473 31.1348 232.975 30.7832C233.482 30.4316 233.746 29.7904 233.766 28.8594V27.8242ZM232.076 26.5254C232.59 26.4603 232.958 26.3789 233.18 26.2812C233.577 26.112 233.775 25.8483 233.775 25.4902C233.775 25.054 233.622 24.7546 233.316 24.5918C233.017 24.4225 232.574 24.3379 231.988 24.3379C231.331 24.3379 230.865 24.5007 230.592 24.8262C230.396 25.0671 230.266 25.3926 230.201 25.8027H227.516C227.574 24.8717 227.835 24.1068 228.297 23.5078C229.033 22.5703 230.296 22.1016 232.086 22.1016C233.251 22.1016 234.286 22.3327 235.191 22.7949C236.096 23.2572 236.549 24.1296 236.549 25.4121V30.2949C236.549 30.6335 236.555 31.0436 236.568 31.5254C236.588 31.89 236.643 32.1374 236.734 32.2676C236.826 32.3978 236.962 32.5052 237.145 32.5898V33H234.117C234.033 32.7852 233.974 32.5833 233.941 32.3945C233.909 32.2057 233.883 31.9909 233.863 31.75C233.479 32.1667 233.036 32.5215 232.535 32.8145C231.936 33.1595 231.259 33.332 230.504 33.332C229.54 33.332 228.743 33.0586 228.111 32.5117C227.486 31.9583 227.174 31.1771 227.174 30.168C227.174 28.8594 227.678 27.9121 228.688 27.3262C229.241 27.0072 230.055 26.7793 231.129 26.6426L232.076 26.5254ZM245.387 26.1738C245.335 25.7767 245.201 25.4186 244.986 25.0996C244.674 24.6699 244.189 24.4551 243.531 24.4551C242.594 24.4551 241.952 24.9206 241.607 25.8516C241.425 26.3464 241.334 27.0039 241.334 27.8242C241.334 28.6055 241.425 29.2337 241.607 29.709C241.939 30.5944 242.564 31.0371 243.482 31.0371C244.133 31.0371 244.596 30.8613 244.869 30.5098C245.143 30.1582 245.309 29.7025 245.367 29.1426H248.209C248.144 29.9889 247.838 30.7897 247.291 31.5449C246.419 32.7624 245.126 33.3711 243.414 33.3711C241.702 33.3711 240.442 32.8633 239.635 31.8477C238.827 30.832 238.424 29.5137 238.424 27.8926C238.424 26.0632 238.87 24.6406 239.762 23.625C240.654 22.6094 241.884 22.1016 243.453 22.1016C244.788 22.1016 245.878 22.401 246.725 23C247.577 23.599 248.082 24.6569 248.238 26.1738H245.387ZM254.361 24.3672C253.717 24.3672 253.215 24.569 252.857 24.9727C252.506 25.3763 252.285 25.9232 252.193 26.6133H256.52C256.474 25.8776 256.249 25.321 255.846 24.9434C255.449 24.5592 254.954 24.3672 254.361 24.3672ZM254.361 22.0723C255.247 22.0723 256.044 22.2383 256.754 22.5703C257.464 22.9023 258.049 23.4264 258.512 24.1426C258.928 24.7741 259.199 25.5065 259.322 26.3398C259.394 26.8281 259.423 27.5312 259.41 28.4492H252.125C252.164 29.5169 252.499 30.2656 253.131 30.6953C253.515 30.9622 253.977 31.0957 254.518 31.0957C255.09 31.0957 255.556 30.9329 255.914 30.6074C256.109 30.4316 256.282 30.1875 256.432 29.875H259.273C259.202 30.5065 258.873 31.1478 258.287 31.7988C257.376 32.834 256.1 33.3516 254.459 33.3516C253.105 33.3516 251.91 32.9154 250.875 32.043C249.84 31.1706 249.322 29.7513 249.322 27.7852C249.322 25.9427 249.788 24.5299 250.719 23.5469C251.656 22.5638 252.87 22.0723 254.361 22.0723ZM267.047 22.1211C268.447 22.1211 269.54 22.6257 270.328 23.6348C271.122 24.6439 271.52 25.946 271.52 27.541C271.52 29.1947 271.129 30.5651 270.348 31.6523C269.566 32.7396 268.476 33.2832 267.076 33.2832C266.197 33.2832 265.491 33.1074 264.957 32.7559C264.638 32.5475 264.293 32.1829 263.922 31.6621V33H261.197V18.625H263.971V23.7422C264.322 23.2474 264.71 22.8698 265.133 22.6094C265.634 22.2839 266.272 22.1211 267.047 22.1211ZM266.334 30.9883C267.05 30.9883 267.607 30.6986 268.004 30.1191C268.401 29.5397 268.6 28.778 268.6 27.834C268.6 27.0788 268.502 26.4538 268.307 25.959C267.936 25.0215 267.252 24.5527 266.256 24.5527C265.247 24.5527 264.553 25.0117 264.176 25.9297C263.98 26.418 263.883 27.0495 263.883 27.8242C263.883 28.7357 264.085 29.4909 264.488 30.0898C264.892 30.6888 265.507 30.9883 266.334 30.9883ZM278.297 31.0371C279.111 31.0371 279.736 30.7474 280.172 30.168C280.608 29.5885 280.826 28.765 280.826 27.6973C280.826 26.6296 280.608 25.8092 280.172 25.2363C279.736 24.6569 279.111 24.3672 278.297 24.3672C277.483 24.3672 276.855 24.6569 276.412 25.2363C275.976 25.8092 275.758 26.6296 275.758 27.6973C275.758 28.765 275.976 29.5885 276.412 30.168C276.855 30.7474 277.483 31.0371 278.297 31.0371ZM283.746 27.6973C283.746 29.2598 283.297 30.5977 282.398 31.7109C281.5 32.8177 280.136 33.3711 278.307 33.3711C276.477 33.3711 275.113 32.8177 274.215 31.7109C273.316 30.5977 272.867 29.2598 272.867 27.6973C272.867 26.1608 273.316 24.8294 274.215 23.7031C275.113 22.5768 276.477 22.0137 278.307 22.0137C280.136 22.0137 281.5 22.5768 282.398 23.7031C283.297 24.8294 283.746 26.1608 283.746 27.6973ZM290.523 31.0371C291.337 31.0371 291.962 30.7474 292.398 30.168C292.835 29.5885 293.053 28.765 293.053 27.6973C293.053 26.6296 292.835 25.8092 292.398 25.2363C291.962 24.6569 291.337 24.3672 290.523 24.3672C289.71 24.3672 289.081 24.6569 288.639 25.2363C288.202 25.8092 287.984 26.6296 287.984 27.6973C287.984 28.765 288.202 29.5885 288.639 30.168C289.081 30.7474 289.71 31.0371 290.523 31.0371ZM295.973 27.6973C295.973 29.2598 295.523 30.5977 294.625 31.7109C293.727 32.8177 292.363 33.3711 290.533 33.3711C288.704 33.3711 287.34 32.8177 286.441 31.7109C285.543 30.5977 285.094 29.2598 285.094 27.6973C285.094 26.1608 285.543 24.8294 286.441 23.7031C287.34 22.5768 288.704 22.0137 290.533 22.0137C292.363 22.0137 293.727 22.5768 294.625 23.7031C295.523 24.8294 295.973 26.1608 295.973 27.6973ZM297.945 18.6543H300.68V26.4082L304.146 22.4043H307.594L303.873 26.4766L307.74 33H304.381L301.832 28.4492L300.68 29.6504V33H297.945V18.6543Z" fill="white"/>
</svg>
