<svg width="352" height="63" viewBox="0 0 352 63" fill="none" xmlns="http://www.w3.org/2000/svg">
<g filter="url(#filter0_dd_81_1494)">
<rect x="3.15405" y="3.46289" width="345" height="54" rx="10" fill="white"/>
<rect x="45.1541" y="3.46289" width="261" height="54" rx="10" fill="white"/>
<rect width="24" height="24" transform="translate(60.1541 18.4629)" fill="white"/>
<path fill-rule="evenodd" clip-rule="evenodd" d="M83.1941 30.7243C83.1941 29.9089 83.1209 29.1248 82.985 28.3721H72.1541V32.8205H78.3431C78.0766 34.258 77.2663 35.4759 76.0484 36.2914V39.1768H79.765C81.9395 37.1748 83.1941 34.2266 83.1941 30.7243Z" fill="#4285F4"/>
<path fill-rule="evenodd" clip-rule="evenodd" d="M72.154 41.9627C75.259 41.9627 77.8622 40.9329 79.7649 39.1766L76.0483 36.2911C75.0186 36.9811 73.7013 37.3888 72.154 37.3888C69.1588 37.3888 66.6236 35.3659 65.7192 32.6477H61.8772V35.6273C63.7695 39.3857 67.6586 41.9627 72.154 41.9627Z" fill="#34A853"/>
<path fill-rule="evenodd" clip-rule="evenodd" d="M65.7193 32.6479C65.4893 31.9579 65.3586 31.2208 65.3586 30.4629C65.3586 29.7049 65.4893 28.9679 65.7193 28.2779V25.2983H61.8772C61.0984 26.8508 60.6541 28.6072 60.6541 30.4629C60.6541 32.3186 61.0984 34.0749 61.8772 35.6274L65.7193 32.6479Z" fill="#FBBC05"/>
<path fill-rule="evenodd" clip-rule="evenodd" d="M72.154 23.5368C73.8424 23.5368 75.3583 24.117 76.5502 25.2565L79.8486 21.9581C77.857 20.1024 75.2538 18.9629 72.154 18.9629C67.6586 18.9629 63.7695 21.5399 61.8772 25.2983L65.7192 28.2779C66.6236 25.5597 69.1588 23.5368 72.154 23.5368Z" fill="#EA4335"/>
<path d="M111.449 31.834C111.306 33.3509 110.746 34.5358 109.769 35.3887C108.793 36.235 107.494 36.6582 105.873 36.6582C104.74 36.6582 103.741 36.3913 102.875 35.8574C102.015 35.3171 101.351 34.5521 100.883 33.5625C100.414 32.5729 100.17 31.4238 100.15 30.1152V28.7871C100.15 27.446 100.388 26.2643 100.863 25.2422C101.338 24.2201 102.019 23.4323 102.904 22.8789C103.796 22.3255 104.825 22.0488 105.99 22.0488C107.559 22.0488 108.822 22.4753 109.779 23.3281C110.736 24.181 111.293 25.3854 111.449 26.9414H108.988C108.871 25.9193 108.571 25.1836 108.09 24.7344C107.614 24.2786 106.914 24.0508 105.99 24.0508C104.916 24.0508 104.089 24.4447 103.51 25.2324C102.937 26.0137 102.644 27.1628 102.631 28.6797V29.9395C102.631 31.4759 102.904 32.6478 103.451 33.4551C104.004 34.2624 104.812 34.666 105.873 34.666C106.843 34.666 107.572 34.4479 108.06 34.0117C108.549 33.5755 108.858 32.8496 108.988 31.834H111.449ZM112.992 31.082C112.992 30.0469 113.197 29.1159 113.607 28.2891C114.017 27.4557 114.594 26.8177 115.336 26.375C116.078 25.9258 116.931 25.7012 117.894 25.7012C119.32 25.7012 120.476 26.1602 121.361 27.0781C122.253 27.9961 122.735 29.2135 122.806 30.7305L122.816 31.2871C122.816 32.3288 122.614 33.2598 122.211 34.0801C121.814 34.9004 121.241 35.5352 120.492 35.9844C119.75 36.4336 118.89 36.6582 117.914 36.6582C116.423 36.6582 115.228 36.1634 114.33 35.1738C113.438 34.1777 112.992 32.8529 112.992 31.1992V31.082ZM115.365 31.2871C115.365 32.3743 115.59 33.2272 116.039 33.8457C116.488 34.4577 117.113 34.7637 117.914 34.7637C118.715 34.7637 119.336 34.4512 119.779 33.8262C120.228 33.2012 120.453 32.2865 120.453 31.082C120.453 30.0143 120.222 29.168 119.76 28.543C119.304 27.918 118.682 27.6055 117.894 27.6055C117.12 27.6055 116.504 27.9147 116.049 28.5332C115.593 29.1452 115.365 30.0632 115.365 31.2871ZM127.025 25.8965L127.094 27.1172C127.875 26.1732 128.9 25.7012 130.17 25.7012C132.37 25.7012 133.49 26.9609 133.529 29.4805V36.4629H131.156V29.6172C131.156 28.9466 131.01 28.4518 130.717 28.1328C130.43 27.8073 129.958 27.6445 129.301 27.6445C128.344 27.6445 127.631 28.0775 127.162 28.9434V36.4629H124.789V25.8965H127.025ZM138.929 23.3281V25.8965H140.795V27.6543H138.929V33.5527C138.929 33.9564 139.008 34.2493 139.164 34.4316C139.327 34.6074 139.613 34.6953 140.023 34.6953C140.297 34.6953 140.573 34.6628 140.853 34.5977V36.4336C140.313 36.5833 139.792 36.6582 139.291 36.6582C137.468 36.6582 136.556 35.6523 136.556 33.6406V27.6543H134.818V25.8965H136.556V23.3281H138.929ZM145.14 36.4629H142.767V25.8965H145.14V36.4629ZM142.621 23.1523C142.621 22.7878 142.735 22.485 142.963 22.2441C143.197 22.0033 143.529 21.8828 143.959 21.8828C144.388 21.8828 144.72 22.0033 144.955 22.2441C145.189 22.485 145.306 22.7878 145.306 23.1523C145.306 23.5104 145.189 23.8099 144.955 24.0508C144.72 24.2852 144.388 24.4023 143.959 24.4023C143.529 24.4023 143.197 24.2852 142.963 24.0508C142.735 23.8099 142.621 23.5104 142.621 23.1523ZM149.935 25.8965L150.004 27.1172C150.785 26.1732 151.81 25.7012 153.08 25.7012C155.28 25.7012 156.4 26.9609 156.439 29.4805V36.4629H154.066V29.6172C154.066 28.9466 153.92 28.4518 153.627 28.1328C153.34 27.8073 152.868 27.6445 152.211 27.6445C151.254 27.6445 150.541 28.0775 150.072 28.9434V36.4629H147.699V25.8965H149.935ZM165.267 35.4277C164.571 36.248 163.581 36.6582 162.299 36.6582C161.153 36.6582 160.284 36.3229 159.691 35.6523C159.105 34.9818 158.812 34.0117 158.812 32.7422V25.8965H161.185V32.7129C161.185 34.054 161.742 34.7246 162.855 34.7246C164.008 34.7246 164.786 34.3112 165.189 33.4844V25.8965H167.562V36.4629H165.326L165.267 35.4277ZM174.633 36.6582C173.129 36.6582 171.908 36.1862 170.97 35.2422C170.039 34.2917 169.574 33.0286 169.574 31.4531V31.1602C169.574 30.1055 169.776 29.1647 170.179 28.3379C170.59 27.5046 171.163 26.8568 171.898 26.3945C172.634 25.9323 173.454 25.7012 174.359 25.7012C175.798 25.7012 176.908 26.1602 177.689 27.0781C178.477 27.9961 178.871 29.2949 178.871 30.9746V31.9316H171.967C172.038 32.804 172.328 33.4941 172.836 34.002C173.35 34.5098 173.995 34.7637 174.769 34.7637C175.857 34.7637 176.742 34.3242 177.426 33.4453L178.705 34.666C178.282 35.2975 177.715 35.7891 177.006 36.1406C176.302 36.4857 175.511 36.6582 174.633 36.6582ZM174.349 27.6055C173.698 27.6055 173.171 27.8333 172.767 28.2891C172.37 28.7448 172.116 29.3796 172.006 30.1934H176.527V30.0176C176.475 29.2233 176.263 28.6243 175.892 28.2207C175.521 27.8105 175.007 27.6055 174.349 27.6055ZM194.984 33.1914L196.664 25.8965H198.978L196.097 36.4629H194.144L191.879 29.207L189.652 36.4629H187.699L184.808 25.8965H187.123L188.832 33.1133L191 25.8965H192.787L194.984 33.1914ZM203.09 36.4629H200.717V25.8965H203.09V36.4629ZM200.57 23.1523C200.57 22.7878 200.684 22.485 200.912 22.2441C201.146 22.0033 201.478 21.8828 201.908 21.8828C202.338 21.8828 202.67 22.0033 202.904 22.2441C203.138 22.485 203.256 22.7878 203.256 23.1523C203.256 23.5104 203.138 23.8099 202.904 24.0508C202.67 24.2852 202.338 24.4023 201.908 24.4023C201.478 24.4023 201.146 24.2852 200.912 24.0508C200.684 23.8099 200.57 23.5104 200.57 23.1523ZM208.656 23.3281V25.8965H210.521V27.6543H208.656V33.5527C208.656 33.9564 208.734 34.2493 208.89 34.4316C209.053 34.6074 209.34 34.6953 209.75 34.6953C210.023 34.6953 210.3 34.6628 210.58 34.5977V36.4336C210.039 36.5833 209.519 36.6582 209.017 36.6582C207.194 36.6582 206.283 35.6523 206.283 33.6406V27.6543H204.545V25.8965H206.283V23.3281H208.656ZM214.681 27.0488C215.456 26.1504 216.436 25.7012 217.621 25.7012C219.873 25.7012 221.016 26.987 221.049 29.5586V36.4629H218.676V29.6465C218.676 28.9173 218.516 28.403 218.197 28.1035C217.885 27.7975 217.422 27.6445 216.81 27.6445C215.86 27.6445 215.15 28.0677 214.681 28.9141V36.4629H212.308V21.4629H214.681V27.0488ZM239.564 34.6172C239.05 35.2878 238.337 35.7956 237.426 36.1406C236.514 36.4857 235.479 36.6582 234.32 36.6582C233.129 36.6582 232.074 36.388 231.156 35.8477C230.238 35.3073 229.528 34.5358 229.027 33.5332C228.532 32.5241 228.275 31.349 228.256 30.0078V28.8945C228.256 26.7461 228.77 25.0697 229.799 23.8652C230.827 22.6543 232.263 22.0488 234.105 22.0488C235.687 22.0488 236.944 22.4395 237.875 23.2207C238.806 24.002 239.366 25.1283 239.554 26.5996H237.133C236.859 24.8874 235.866 24.0312 234.154 24.0312C233.047 24.0312 232.204 24.4316 231.625 25.2324C231.052 26.0267 230.756 27.1953 230.736 28.7383V29.832C230.736 31.3685 231.058 32.5632 231.703 33.416C232.354 34.2624 233.256 34.6855 234.408 34.6855C235.671 34.6855 236.569 34.3991 237.103 33.8262V31.043H234.174V29.168H239.564V34.6172ZM241.605 31.082C241.605 30.0469 241.81 29.1159 242.22 28.2891C242.631 27.4557 243.207 26.8177 243.949 26.375C244.691 25.9258 245.544 25.7012 246.508 25.7012C247.933 25.7012 249.089 26.1602 249.974 27.0781C250.866 27.9961 251.348 29.2135 251.42 30.7305L251.429 31.2871C251.429 32.3288 251.228 33.2598 250.824 34.0801C250.427 34.9004 249.854 35.5352 249.105 35.9844C248.363 36.4336 247.504 36.6582 246.527 36.6582C245.036 36.6582 243.842 36.1634 242.943 35.1738C242.051 34.1777 241.605 32.8529 241.605 31.1992V31.082ZM243.978 31.2871C243.978 32.3743 244.203 33.2272 244.652 33.8457C245.101 34.4577 245.726 34.7637 246.527 34.7637C247.328 34.7637 247.95 34.4512 248.392 33.8262C248.842 33.2012 249.066 32.2865 249.066 31.082C249.066 30.0143 248.835 29.168 248.373 28.543C247.917 27.918 247.295 27.6055 246.508 27.6055C245.733 27.6055 245.118 27.9147 244.662 28.5332C244.206 29.1452 243.978 30.0632 243.978 31.2871ZM252.992 31.082C252.992 30.0469 253.197 29.1159 253.607 28.2891C254.017 27.4557 254.594 26.8177 255.336 26.375C256.078 25.9258 256.931 25.7012 257.894 25.7012C259.32 25.7012 260.476 26.1602 261.361 27.0781C262.253 27.9961 262.735 29.2135 262.806 30.7305L262.816 31.2871C262.816 32.3288 262.614 33.2598 262.211 34.0801C261.814 34.9004 261.241 35.5352 260.492 35.9844C259.75 36.4336 258.89 36.6582 257.914 36.6582C256.423 36.6582 255.228 36.1634 254.33 35.1738C253.438 34.1777 252.992 32.8529 252.992 31.1992V31.082ZM255.365 31.2871C255.365 32.3743 255.59 33.2272 256.039 33.8457C256.488 34.4577 257.113 34.7637 257.914 34.7637C258.715 34.7637 259.336 34.4512 259.779 33.8262C260.228 33.2012 260.453 32.2865 260.453 31.082C260.453 30.0143 260.222 29.168 259.76 28.543C259.304 27.918 258.682 27.6055 257.894 27.6055C257.12 27.6055 256.504 27.9147 256.049 28.5332C255.593 29.1452 255.365 30.0632 255.365 31.2871ZM264.408 31.1016C264.408 29.4609 264.792 28.1523 265.56 27.1758C266.335 26.1927 267.36 25.7012 268.636 25.7012C269.841 25.7012 270.788 26.1211 271.478 26.9609L271.586 25.8965H273.724V36.1406C273.724 37.5273 273.291 38.6211 272.426 39.4219C271.566 40.2227 270.404 40.623 268.939 40.623C268.164 40.623 267.406 40.4603 266.664 40.1348C265.928 39.8158 265.368 39.3958 264.984 38.875L266.107 37.4492C266.836 38.3151 267.735 38.748 268.802 38.748C269.59 38.748 270.212 38.5332 270.668 38.1035C271.123 37.6803 271.351 37.0553 271.351 36.2285V35.5156C270.668 36.2773 269.756 36.6582 268.617 36.6582C267.38 36.6582 266.368 36.1667 265.58 35.1836C264.799 34.2005 264.408 32.8398 264.408 31.1016ZM266.771 31.3066C266.771 32.3678 266.986 33.2044 267.416 33.8164C267.852 34.4219 268.454 34.7246 269.222 34.7246C270.179 34.7246 270.889 34.3145 271.351 33.4941V28.8457C270.902 28.0449 270.199 27.6445 269.242 27.6445C268.461 27.6445 267.852 27.9538 267.416 28.5723C266.986 29.1908 266.771 30.1022 266.771 31.3066ZM278.695 36.4629H276.322V21.4629H278.695V36.4629ZM285.941 36.6582C284.437 36.6582 283.217 36.1862 282.279 35.2422C281.348 34.2917 280.883 33.0286 280.883 31.4531V31.1602C280.883 30.1055 281.084 29.1647 281.488 28.3379C281.898 27.5046 282.471 26.8568 283.207 26.3945C283.942 25.9323 284.763 25.7012 285.668 25.7012C287.107 25.7012 288.217 26.1602 288.998 27.0781C289.786 27.9961 290.179 29.2949 290.179 30.9746V31.9316H283.275C283.347 32.804 283.636 33.4941 284.144 34.002C284.659 34.5098 285.303 34.7637 286.078 34.7637C287.165 34.7637 288.051 34.3242 288.734 33.4453L290.013 34.666C289.59 35.2975 289.024 35.7891 288.314 36.1406C287.611 36.4857 286.82 36.6582 285.941 36.6582ZM285.658 27.6055C285.007 27.6055 284.48 27.8333 284.076 28.2891C283.679 28.7448 283.425 29.3796 283.314 30.1934H287.836V30.0176C287.784 29.2233 287.572 28.6243 287.201 28.2207C286.83 27.8105 286.316 27.6055 285.658 27.6055Z" fill="black" fill-opacity="0.54"/>
</g>
<defs>
<filter id="filter0_dd_81_1494" x="0.154053" y="0.462891" width="351" height="62" filterUnits="userSpaceOnUse" color-interpolation-filters="sRGB">
<feFlood flood-opacity="0" result="BackgroundImageFix"/>
<feColorMatrix in="SourceAlpha" type="matrix" values="0 0 0 0 0 0 0 0 0 0 0 0 0 0 0 0 0 0 127 0" result="hardAlpha"/>
<feOffset dy="2"/>
<feGaussianBlur stdDeviation="1.5"/>
<feColorMatrix type="matrix" values="0 0 0 0 0 0 0 0 0 0 0 0 0 0 0 0 0 0 0.168 0"/>
<feBlend mode="normal" in2="BackgroundImageFix" result="effect1_dropShadow_81_1494"/>
<feColorMatrix in="SourceAlpha" type="matrix" values="0 0 0 0 0 0 0 0 0 0 0 0 0 0 0 0 0 0 127 0" result="hardAlpha"/>
<feOffset/>
<feGaussianBlur stdDeviation="1.5"/>
<feColorMatrix type="matrix" values="0 0 0 0 0 0 0 0 0 0 0 0 0 0 0 0 0 0 0.084 0"/>
<feBlend mode="normal" in2="effect1_dropShadow_81_1494" result="effect2_dropShadow_81_1494"/>
<feBlend mode="normal" in="SourceGraphic" in2="effect2_dropShadow_81_1494" result="shape"/>
</filter>
</defs>
</svg>
