<svg width="202" height="48" viewBox="0 0 202 48" fill="none" xmlns="http://www.w3.org/2000/svg">
<mask id="path-1-outside-1_100_82" maskUnits="userSpaceOnUse" x="3" y="5" width="195" height="43" fill="black">
<rect fill="white" x="3" y="5" width="195" height="43"/>
<path d="M15.6543 35.256C14.0969 35.256 12.7103 34.9893 11.4943 34.456C10.2783 33.9227 9.31825 33.1973 8.61425 32.28C7.91025 31.3413 7.51558 30.296 7.43025 29.144H12.8383C12.9023 29.7627 13.1903 30.264 13.7023 30.648C14.2143 31.032 14.8436 31.224 15.5903 31.224C16.2729 31.224 16.7956 31.096 17.1583 30.84C17.5423 30.5627 17.7343 30.2107 17.7343 29.784C17.7343 29.272 17.4676 28.8987 16.9343 28.664C16.4009 28.408 15.5369 28.1307 14.3423 27.832C13.0623 27.5333 11.9956 27.224 11.1423 26.904C10.2889 26.5627 9.55292 26.04 8.93425 25.336C8.31558 24.6107 8.00625 23.64 8.00625 22.424C8.00625 21.4 8.28358 20.472 8.83825 19.64C9.41425 18.7867 10.2463 18.1147 11.3343 17.624C12.4436 17.1333 13.7556 16.888 15.2703 16.888C17.5103 16.888 19.2703 17.4427 20.5503 18.552C21.8516 19.6613 22.5983 21.1333 22.7903 22.968H17.7343C17.6489 22.3493 17.3716 21.8587 16.9023 21.496C16.4543 21.1333 15.8569 20.952 15.1103 20.952C14.4703 20.952 13.9796 21.08 13.6383 21.336C13.2969 21.5707 13.1263 21.9013 13.1263 22.328C13.1263 22.84 13.3929 23.224 13.9263 23.48C14.4809 23.736 15.3343 23.992 16.4863 24.248C17.8089 24.5893 18.8863 24.9307 19.7183 25.272C20.5503 25.592 21.2756 26.1253 21.8943 26.872C22.5343 27.5973 22.8649 28.5787 22.8863 29.816C22.8863 30.8613 22.5876 31.8 21.9903 32.632C21.4143 33.4427 20.5716 34.0827 19.4623 34.552C18.3743 35.0213 17.1049 35.256 15.6543 35.256ZM34.362 35.256C32.6127 35.256 31.034 34.8827 29.626 34.136C28.2393 33.3893 27.1407 32.3227 26.33 30.936C25.5407 29.5493 25.146 27.928 25.146 26.072C25.146 24.2373 25.5513 22.6267 26.362 21.24C27.1727 19.832 28.282 18.7547 29.69 18.008C31.098 17.2613 32.6767 16.888 34.426 16.888C36.1753 16.888 37.754 17.2613 39.162 18.008C40.57 18.7547 41.6793 19.832 42.49 21.24C43.3007 22.6267 43.706 24.2373 43.706 26.072C43.706 27.9067 43.29 29.528 42.458 30.936C41.6473 32.3227 40.5273 33.3893 39.098 34.136C37.69 34.8827 36.1113 35.256 34.362 35.256ZM34.362 30.52C35.4073 30.52 36.2927 30.136 37.018 29.368C37.7647 28.6 38.138 27.5013 38.138 26.072C38.138 24.6427 37.7753 23.544 37.05 22.776C36.346 22.008 35.4713 21.624 34.426 21.624C33.3593 21.624 32.474 22.008 31.77 22.776C31.066 23.5227 30.714 24.6213 30.714 26.072C30.714 27.5013 31.0553 28.6 31.738 29.368C32.442 30.136 33.3167 30.52 34.362 30.52ZM45.521 26.072C45.521 24.216 45.8943 22.5947 46.641 21.208C47.409 19.8213 48.465 18.7547 49.809 18.008C51.1743 17.2613 52.7317 16.888 54.481 16.888C56.721 16.888 58.5877 17.4747 60.081 18.648C61.5957 19.8213 62.5877 21.4747 63.057 23.608H57.233C56.7423 22.2427 55.793 21.56 54.385 21.56C53.3823 21.56 52.5823 21.9547 51.985 22.744C51.3877 23.512 51.089 24.6213 51.089 26.072C51.089 27.5227 51.3877 28.6427 51.985 29.432C52.5823 30.2 53.3823 30.584 54.385 30.584C55.793 30.584 56.7423 29.9013 57.233 28.536H63.057C62.5877 30.6267 61.5957 32.2693 60.081 33.464C58.5663 34.6587 56.6997 35.256 54.481 35.256C52.7317 35.256 51.1743 34.8827 49.809 34.136C48.465 33.3893 47.409 32.3227 46.641 30.936C45.8943 29.5493 45.521 27.928 45.521 26.072ZM68.736 15.288C67.776 15.288 66.9867 15.0107 66.368 14.456C65.7707 13.88 65.472 13.176 65.472 12.344C65.472 11.4907 65.7707 10.7867 66.368 10.232C66.9867 9.656 67.776 9.368 68.736 9.368C69.6747 9.368 70.4427 9.656 71.04 10.232C71.6587 10.7867 71.968 11.4907 71.968 12.344C71.968 13.176 71.6587 13.88 71.04 14.456C70.4427 15.0107 69.6747 15.288 68.736 15.288ZM71.456 17.144V35H65.984V17.144H71.456ZM74.3335 26.04C74.3335 24.2053 74.6748 22.5947 75.3575 21.208C76.0615 19.8213 77.0108 18.7547 78.2055 18.008C79.4002 17.2613 80.7335 16.888 82.2055 16.888C83.4642 16.888 84.5628 17.144 85.5015 17.656C86.4615 18.168 87.1975 18.84 87.7095 19.672V17.144H93.1815V35H87.7095V32.472C87.1762 33.304 86.4295 33.976 85.4695 34.488C84.5308 35 83.4322 35.256 82.1735 35.256C80.7228 35.256 79.4002 34.8827 78.2055 34.136C77.0108 33.368 76.0615 32.2907 75.3575 30.904C74.6748 29.496 74.3335 27.8747 74.3335 26.04ZM87.7095 26.072C87.7095 24.7067 87.3255 23.6293 86.5575 22.84C85.8108 22.0507 84.8935 21.656 83.8055 21.656C82.7175 21.656 81.7895 22.0507 81.0215 22.84C80.2748 23.608 79.9015 24.6747 79.9015 26.04C79.9015 27.4053 80.2748 28.4933 81.0215 29.304C81.7895 30.0933 82.7175 30.488 83.8055 30.488C84.8935 30.488 85.8108 30.0933 86.5575 29.304C87.3255 28.5147 87.7095 27.4373 87.7095 26.072ZM102.612 11.32V35H97.1403V11.32H102.612ZM113.362 16.888C114.62 16.888 115.719 17.144 116.658 17.656C117.618 18.168 118.354 18.84 118.866 19.672V17.144H124.338V34.968C124.338 36.6107 124.007 38.0933 123.346 39.416C122.706 40.76 121.714 41.8267 120.37 42.616C119.047 43.4053 117.394 43.8 115.41 43.8C112.764 43.8 110.62 43.1707 108.978 41.912C107.335 40.6747 106.396 38.9893 106.162 36.856H111.57C111.74 37.5387 112.146 38.072 112.786 38.456C113.426 38.8613 114.215 39.064 115.154 39.064C116.284 39.064 117.18 38.7333 117.842 38.072C118.524 37.432 118.866 36.3973 118.866 34.968V32.44C118.332 33.272 117.596 33.9547 116.658 34.488C115.719 35 114.62 35.256 113.362 35.256C111.89 35.256 110.556 34.8827 109.362 34.136C108.167 33.368 107.218 32.2907 106.514 30.904C105.831 29.496 105.49 27.8747 105.49 26.04C105.49 24.2053 105.831 22.5947 106.514 21.208C107.218 19.8213 108.167 18.7547 109.362 18.008C110.556 17.2613 111.89 16.888 113.362 16.888ZM118.866 26.072C118.866 24.7067 118.482 23.6293 117.714 22.84C116.967 22.0507 116.05 21.656 114.962 21.656C113.874 21.656 112.946 22.0507 112.178 22.84C111.431 23.608 111.058 24.6747 111.058 26.04C111.058 27.4053 111.431 28.4933 112.178 29.304C112.946 30.0933 113.874 30.488 114.962 30.488C116.05 30.488 116.967 30.0933 117.714 29.304C118.482 28.5147 118.866 27.4373 118.866 26.072ZM133.769 20.12C134.409 19.1387 135.209 18.3707 136.169 17.816C137.129 17.24 138.195 16.952 139.369 16.952V22.744H137.865C136.499 22.744 135.475 23.0427 134.793 23.64C134.11 24.216 133.769 25.24 133.769 26.712V35H128.297V17.144H133.769V20.12ZM140.896 26.04C140.896 24.2053 141.237 22.5947 141.92 21.208C142.624 19.8213 143.573 18.7547 144.768 18.008C145.963 17.2613 147.296 16.888 148.768 16.888C150.027 16.888 151.125 17.144 152.064 17.656C153.024 18.168 153.76 18.84 154.272 19.672V17.144H159.744V35H154.272V32.472C153.739 33.304 152.992 33.976 152.032 34.488C151.093 35 149.995 35.256 148.736 35.256C147.285 35.256 145.963 34.8827 144.768 34.136C143.573 33.368 142.624 32.2907 141.92 30.904C141.237 29.496 140.896 27.8747 140.896 26.04ZM154.272 26.072C154.272 24.7067 153.888 23.6293 153.12 22.84C152.373 22.0507 151.456 21.656 150.368 21.656C149.28 21.656 148.352 22.0507 147.584 22.84C146.837 23.608 146.464 24.6747 146.464 26.04C146.464 27.4053 146.837 28.4933 147.584 29.304C148.352 30.0933 149.28 30.488 150.368 30.488C151.456 30.488 152.373 30.0933 153.12 29.304C153.888 28.5147 154.272 27.4373 154.272 26.072ZM186.487 16.952C188.705 16.952 190.465 17.624 191.767 18.968C193.089 20.312 193.751 22.1787 193.751 24.568V35H188.311V25.304C188.311 24.152 188.001 23.2667 187.383 22.648C186.785 22.008 185.953 21.688 184.887 21.688C183.82 21.688 182.977 22.008 182.359 22.648C181.761 23.2667 181.463 24.152 181.463 25.304V35H176.023V25.304C176.023 24.152 175.713 23.2667 175.095 22.648C174.497 22.008 173.665 21.688 172.599 21.688C171.532 21.688 170.689 22.008 170.071 22.648C169.473 23.2667 169.175 24.152 169.175 25.304V35H163.703V17.144H169.175V19.384C169.729 18.6373 170.455 18.0507 171.351 17.624C172.247 17.176 173.26 16.952 174.391 16.952C175.735 16.952 176.929 17.24 177.975 17.816C179.041 18.392 179.873 19.2133 180.471 20.28C181.089 19.2987 181.932 18.4987 182.999 17.88C184.065 17.2613 185.228 16.952 186.487 16.952Z"/>
</mask>
<path d="M15.6543 35.256C14.0969 35.256 12.7103 34.9893 11.4943 34.456C10.2783 33.9227 9.31825 33.1973 8.61425 32.28C7.91025 31.3413 7.51558 30.296 7.43025 29.144H12.8383C12.9023 29.7627 13.1903 30.264 13.7023 30.648C14.2143 31.032 14.8436 31.224 15.5903 31.224C16.2729 31.224 16.7956 31.096 17.1583 30.84C17.5423 30.5627 17.7343 30.2107 17.7343 29.784C17.7343 29.272 17.4676 28.8987 16.9343 28.664C16.4009 28.408 15.5369 28.1307 14.3423 27.832C13.0623 27.5333 11.9956 27.224 11.1423 26.904C10.2889 26.5627 9.55292 26.04 8.93425 25.336C8.31558 24.6107 8.00625 23.64 8.00625 22.424C8.00625 21.4 8.28358 20.472 8.83825 19.64C9.41425 18.7867 10.2463 18.1147 11.3343 17.624C12.4436 17.1333 13.7556 16.888 15.2703 16.888C17.5103 16.888 19.2703 17.4427 20.5503 18.552C21.8516 19.6613 22.5983 21.1333 22.7903 22.968H17.7343C17.6489 22.3493 17.3716 21.8587 16.9023 21.496C16.4543 21.1333 15.8569 20.952 15.1103 20.952C14.4703 20.952 13.9796 21.08 13.6383 21.336C13.2969 21.5707 13.1263 21.9013 13.1263 22.328C13.1263 22.84 13.3929 23.224 13.9263 23.48C14.4809 23.736 15.3343 23.992 16.4863 24.248C17.8089 24.5893 18.8863 24.9307 19.7183 25.272C20.5503 25.592 21.2756 26.1253 21.8943 26.872C22.5343 27.5973 22.8649 28.5787 22.8863 29.816C22.8863 30.8613 22.5876 31.8 21.9903 32.632C21.4143 33.4427 20.5716 34.0827 19.4623 34.552C18.3743 35.0213 17.1049 35.256 15.6543 35.256ZM34.362 35.256C32.6127 35.256 31.034 34.8827 29.626 34.136C28.2393 33.3893 27.1407 32.3227 26.33 30.936C25.5407 29.5493 25.146 27.928 25.146 26.072C25.146 24.2373 25.5513 22.6267 26.362 21.24C27.1727 19.832 28.282 18.7547 29.69 18.008C31.098 17.2613 32.6767 16.888 34.426 16.888C36.1753 16.888 37.754 17.2613 39.162 18.008C40.57 18.7547 41.6793 19.832 42.49 21.24C43.3007 22.6267 43.706 24.2373 43.706 26.072C43.706 27.9067 43.29 29.528 42.458 30.936C41.6473 32.3227 40.5273 33.3893 39.098 34.136C37.69 34.8827 36.1113 35.256 34.362 35.256ZM34.362 30.52C35.4073 30.52 36.2927 30.136 37.018 29.368C37.7647 28.6 38.138 27.5013 38.138 26.072C38.138 24.6427 37.7753 23.544 37.05 22.776C36.346 22.008 35.4713 21.624 34.426 21.624C33.3593 21.624 32.474 22.008 31.77 22.776C31.066 23.5227 30.714 24.6213 30.714 26.072C30.714 27.5013 31.0553 28.6 31.738 29.368C32.442 30.136 33.3167 30.52 34.362 30.52ZM45.521 26.072C45.521 24.216 45.8943 22.5947 46.641 21.208C47.409 19.8213 48.465 18.7547 49.809 18.008C51.1743 17.2613 52.7317 16.888 54.481 16.888C56.721 16.888 58.5877 17.4747 60.081 18.648C61.5957 19.8213 62.5877 21.4747 63.057 23.608H57.233C56.7423 22.2427 55.793 21.56 54.385 21.56C53.3823 21.56 52.5823 21.9547 51.985 22.744C51.3877 23.512 51.089 24.6213 51.089 26.072C51.089 27.5227 51.3877 28.6427 51.985 29.432C52.5823 30.2 53.3823 30.584 54.385 30.584C55.793 30.584 56.7423 29.9013 57.233 28.536H63.057C62.5877 30.6267 61.5957 32.2693 60.081 33.464C58.5663 34.6587 56.6997 35.256 54.481 35.256C52.7317 35.256 51.1743 34.8827 49.809 34.136C48.465 33.3893 47.409 32.3227 46.641 30.936C45.8943 29.5493 45.521 27.928 45.521 26.072ZM68.736 15.288C67.776 15.288 66.9867 15.0107 66.368 14.456C65.7707 13.88 65.472 13.176 65.472 12.344C65.472 11.4907 65.7707 10.7867 66.368 10.232C66.9867 9.656 67.776 9.368 68.736 9.368C69.6747 9.368 70.4427 9.656 71.04 10.232C71.6587 10.7867 71.968 11.4907 71.968 12.344C71.968 13.176 71.6587 13.88 71.04 14.456C70.4427 15.0107 69.6747 15.288 68.736 15.288ZM71.456 17.144V35H65.984V17.144H71.456ZM74.3335 26.04C74.3335 24.2053 74.6748 22.5947 75.3575 21.208C76.0615 19.8213 77.0108 18.7547 78.2055 18.008C79.4002 17.2613 80.7335 16.888 82.2055 16.888C83.4642 16.888 84.5628 17.144 85.5015 17.656C86.4615 18.168 87.1975 18.84 87.7095 19.672V17.144H93.1815V35H87.7095V32.472C87.1762 33.304 86.4295 33.976 85.4695 34.488C84.5308 35 83.4322 35.256 82.1735 35.256C80.7228 35.256 79.4002 34.8827 78.2055 34.136C77.0108 33.368 76.0615 32.2907 75.3575 30.904C74.6748 29.496 74.3335 27.8747 74.3335 26.04ZM87.7095 26.072C87.7095 24.7067 87.3255 23.6293 86.5575 22.84C85.8108 22.0507 84.8935 21.656 83.8055 21.656C82.7175 21.656 81.7895 22.0507 81.0215 22.84C80.2748 23.608 79.9015 24.6747 79.9015 26.04C79.9015 27.4053 80.2748 28.4933 81.0215 29.304C81.7895 30.0933 82.7175 30.488 83.8055 30.488C84.8935 30.488 85.8108 30.0933 86.5575 29.304C87.3255 28.5147 87.7095 27.4373 87.7095 26.072ZM102.612 11.32V35H97.1403V11.32H102.612ZM113.362 16.888C114.62 16.888 115.719 17.144 116.658 17.656C117.618 18.168 118.354 18.84 118.866 19.672V17.144H124.338V34.968C124.338 36.6107 124.007 38.0933 123.346 39.416C122.706 40.76 121.714 41.8267 120.37 42.616C119.047 43.4053 117.394 43.8 115.41 43.8C112.764 43.8 110.62 43.1707 108.978 41.912C107.335 40.6747 106.396 38.9893 106.162 36.856H111.57C111.74 37.5387 112.146 38.072 112.786 38.456C113.426 38.8613 114.215 39.064 115.154 39.064C116.284 39.064 117.18 38.7333 117.842 38.072C118.524 37.432 118.866 36.3973 118.866 34.968V32.44C118.332 33.272 117.596 33.9547 116.658 34.488C115.719 35 114.62 35.256 113.362 35.256C111.89 35.256 110.556 34.8827 109.362 34.136C108.167 33.368 107.218 32.2907 106.514 30.904C105.831 29.496 105.49 27.8747 105.49 26.04C105.49 24.2053 105.831 22.5947 106.514 21.208C107.218 19.8213 108.167 18.7547 109.362 18.008C110.556 17.2613 111.89 16.888 113.362 16.888ZM118.866 26.072C118.866 24.7067 118.482 23.6293 117.714 22.84C116.967 22.0507 116.05 21.656 114.962 21.656C113.874 21.656 112.946 22.0507 112.178 22.84C111.431 23.608 111.058 24.6747 111.058 26.04C111.058 27.4053 111.431 28.4933 112.178 29.304C112.946 30.0933 113.874 30.488 114.962 30.488C116.05 30.488 116.967 30.0933 117.714 29.304C118.482 28.5147 118.866 27.4373 118.866 26.072ZM133.769 20.12C134.409 19.1387 135.209 18.3707 136.169 17.816C137.129 17.24 138.195 16.952 139.369 16.952V22.744H137.865C136.499 22.744 135.475 23.0427 134.793 23.64C134.11 24.216 133.769 25.24 133.769 26.712V35H128.297V17.144H133.769V20.12ZM140.896 26.04C140.896 24.2053 141.237 22.5947 141.92 21.208C142.624 19.8213 143.573 18.7547 144.768 18.008C145.963 17.2613 147.296 16.888 148.768 16.888C150.027 16.888 151.125 17.144 152.064 17.656C153.024 18.168 153.76 18.84 154.272 19.672V17.144H159.744V35H154.272V32.472C153.739 33.304 152.992 33.976 152.032 34.488C151.093 35 149.995 35.256 148.736 35.256C147.285 35.256 145.963 34.8827 144.768 34.136C143.573 33.368 142.624 32.2907 141.92 30.904C141.237 29.496 140.896 27.8747 140.896 26.04ZM154.272 26.072C154.272 24.7067 153.888 23.6293 153.12 22.84C152.373 22.0507 151.456 21.656 150.368 21.656C149.28 21.656 148.352 22.0507 147.584 22.84C146.837 23.608 146.464 24.6747 146.464 26.04C146.464 27.4053 146.837 28.4933 147.584 29.304C148.352 30.0933 149.28 30.488 150.368 30.488C151.456 30.488 152.373 30.0933 153.12 29.304C153.888 28.5147 154.272 27.4373 154.272 26.072ZM186.487 16.952C188.705 16.952 190.465 17.624 191.767 18.968C193.089 20.312 193.751 22.1787 193.751 24.568V35H188.311V25.304C188.311 24.152 188.001 23.2667 187.383 22.648C186.785 22.008 185.953 21.688 184.887 21.688C183.82 21.688 182.977 22.008 182.359 22.648C181.761 23.2667 181.463 24.152 181.463 25.304V35H176.023V25.304C176.023 24.152 175.713 23.2667 175.095 22.648C174.497 22.008 173.665 21.688 172.599 21.688C171.532 21.688 170.689 22.008 170.071 22.648C169.473 23.2667 169.175 24.152 169.175 25.304V35H163.703V17.144H169.175V19.384C169.729 18.6373 170.455 18.0507 171.351 17.624C172.247 17.176 173.26 16.952 174.391 16.952C175.735 16.952 176.929 17.24 177.975 17.816C179.041 18.392 179.873 19.2133 180.471 20.28C181.089 19.2987 181.932 18.4987 182.999 17.88C184.065 17.2613 185.228 16.952 186.487 16.952Z" fill="#952323"/>
<path d="M11.4943 34.456L13.1009 30.7928L13.1009 30.7928L11.4943 34.456ZM8.61425 32.28L5.41425 34.68C5.42311 34.6918 5.43203 34.7036 5.44101 34.7153L8.61425 32.28ZM7.43025 29.144V25.144C6.31805 25.144 5.25606 25.6071 4.49921 26.422C3.74237 27.237 3.35902 28.3303 3.44118 29.4395L7.43025 29.144ZM12.8383 29.144L16.817 28.7324C16.6061 26.6935 14.888 25.144 12.8383 25.144V29.144ZM13.7023 30.648L16.1023 27.448L16.1023 27.448L13.7023 30.648ZM17.1583 30.84L19.465 34.1079C19.4768 34.0996 19.4885 34.0912 19.5002 34.0827L17.1583 30.84ZM16.9343 28.664L15.2033 32.2701C15.243 32.2891 15.283 32.3075 15.3233 32.3253L16.9343 28.664ZM14.3423 27.832L15.3124 23.9514C15.292 23.9463 15.2716 23.9414 15.2512 23.9366L14.3423 27.832ZM11.1423 26.904L9.65669 30.6179C9.6836 30.6287 9.71062 30.6391 9.73776 30.6493L11.1423 26.904ZM8.93425 25.336L5.89091 27.9318C5.9037 27.9468 5.91659 27.9617 5.92959 27.9765L8.93425 25.336ZM8.83825 19.64L5.52286 17.4021C5.51857 17.4085 5.5143 17.4148 5.51005 17.4212L8.83825 19.64ZM11.3343 17.624L9.71623 13.9659C9.70741 13.9698 9.69861 13.9737 9.68982 13.9777L11.3343 17.624ZM20.5503 18.552L17.9305 21.5748C17.9388 21.5819 17.947 21.589 17.9553 21.5961L20.5503 18.552ZM22.7903 22.968V26.968C23.9236 26.968 25.0037 26.4872 25.7622 25.6452C26.5208 24.8031 26.8865 23.6788 26.7685 22.5517L22.7903 22.968ZM17.7343 22.968L13.7718 23.5145C14.0448 25.4938 15.7363 26.968 17.7343 26.968V22.968ZM16.9023 21.496L14.3855 24.605C14.4089 24.624 14.4326 24.6427 14.4565 24.6611L16.9023 21.496ZM13.6383 21.336L15.9044 24.6322C15.9496 24.601 15.9943 24.569 16.0382 24.536L13.6383 21.336ZM13.9263 23.48L12.1953 27.0861C12.2135 27.0948 12.2317 27.1034 12.25 27.1118L13.9263 23.48ZM16.4863 24.248L17.4858 20.3749C17.442 20.3636 17.3981 20.3531 17.354 20.3433L16.4863 24.248ZM19.7183 25.272L18.2 28.9727C18.2273 28.9839 18.2548 28.9948 18.2823 29.0054L19.7183 25.272ZM21.8943 26.872L18.8142 29.4241C18.8406 29.456 18.8675 29.4874 18.8949 29.5185L21.8943 26.872ZM22.8863 29.816H26.8863C26.8863 29.793 26.8861 29.77 26.8857 29.747L22.8863 29.816ZM21.9903 32.632L18.741 30.2992C18.7371 30.3045 18.7333 30.3098 18.7295 30.3152L21.9903 32.632ZM19.4623 34.552L17.9037 30.8681C17.8951 30.8718 17.8865 30.8755 17.8779 30.8792L19.4623 34.552ZM15.6543 31.256C14.5555 31.256 13.7305 31.069 13.1009 30.7928L9.8876 38.1192C11.69 38.9097 13.6383 39.256 15.6543 39.256V31.256ZM13.1009 30.7928C12.4097 30.4897 12.0237 30.1525 11.7875 29.8447L5.44101 34.7153C6.61279 36.2421 8.14678 37.3556 9.8876 38.1192L13.1009 30.7928ZM11.8143 29.88C11.5614 29.5428 11.4472 29.2254 11.4193 28.8485L3.44118 29.4395C3.58393 31.3666 4.25915 33.1399 5.41425 34.68L11.8143 29.88ZM7.43025 33.144H12.8383V25.144H7.43025V33.144ZM8.85948 29.5556C9.04191 31.319 9.92772 32.8171 11.3023 33.848L16.1023 27.448C16.234 27.5468 16.4166 27.7233 16.5707 27.9915C16.7262 28.2622 16.7958 28.5276 16.817 28.7324L8.85948 29.5556ZM11.3022 33.848C12.6175 34.8344 14.1277 35.224 15.5903 35.224V27.224C15.5601 27.224 15.6148 27.2203 15.7255 27.2541C15.8423 27.2897 15.9763 27.3536 16.1023 27.448L11.3022 33.848ZM15.5903 35.224C16.6837 35.224 18.1531 35.0339 19.465 34.1079L14.8515 27.5721C15.156 27.3572 15.4181 27.2733 15.5428 27.2428C15.663 27.2134 15.6923 27.224 15.5903 27.224V35.224ZM19.5002 34.0827C20.7925 33.1494 21.7343 31.6508 21.7343 29.784H13.7343C13.7343 29.3723 13.8336 28.9018 14.0787 28.4526C14.3159 28.0177 14.6113 27.7454 14.8163 27.5973L19.5002 34.0827ZM21.7343 29.784C21.7343 28.7954 21.4627 27.738 20.7892 26.795C20.1392 25.8851 19.2949 25.3326 18.5452 25.0027L15.3233 32.3253C15.1069 32.2301 14.6626 31.9816 14.2793 31.445C13.8725 30.8754 13.7343 30.2606 13.7343 29.784H21.7343ZM18.6652 25.0579C17.7461 24.6168 16.5514 24.2612 15.3124 23.9514L13.3721 31.7126C14.5225 32.0002 15.0557 32.1992 15.2033 32.2701L18.6652 25.0579ZM15.2512 23.9366C14.0728 23.6617 13.1849 23.398 12.5467 23.1587L9.73776 30.6493C10.8063 31.05 12.0517 31.405 13.4333 31.7274L15.2512 23.9366ZM12.6278 23.1901C12.37 23.087 12.1511 22.937 11.9389 22.6955L5.92959 27.9765C6.95474 29.143 8.20783 30.0384 9.65669 30.6179L12.6278 23.1901ZM11.9776 22.7402C12.0034 22.7705 12.0235 22.8007 12.0373 22.826C12.0508 22.8506 12.0531 22.8609 12.0494 22.8495C12.0414 22.8243 12.0063 22.6972 12.0063 22.424H4.00625C4.00625 24.3228 4.50029 26.3014 5.89091 27.9318L11.9776 22.7402ZM12.0063 22.424C12.0063 22.1695 12.0609 22.0171 12.1665 21.8588L5.51005 17.4212C4.50628 18.9269 4.00625 20.6305 4.00625 22.424H12.0063ZM12.1536 21.8779C12.2516 21.7327 12.4579 21.5052 12.9787 21.2703L9.68982 13.9777C8.03464 14.7241 6.57687 15.8406 5.52286 17.4021L12.1536 21.8779ZM12.9523 21.2821C13.442 21.0656 14.1785 20.888 15.2703 20.888V12.888C13.3327 12.888 11.4452 13.2011 9.71623 13.9659L12.9523 21.2821ZM15.2703 20.888C16.8627 20.888 17.5848 21.2752 17.9305 21.5748L23.17 15.5292C20.9557 13.6102 18.1578 12.888 15.2703 12.888V20.888ZM17.9553 21.5961C18.4105 21.9841 18.7176 22.4825 18.812 23.3843L26.7685 22.5517C26.4789 19.7842 25.2927 17.3386 23.1452 15.5079L17.9553 21.5961ZM22.7903 18.968H17.7343V26.968H22.7903V18.968ZM21.6967 22.4215C21.4767 20.8259 20.6938 19.3707 19.348 18.3309L14.4565 24.6611C14.2918 24.5339 14.1172 24.347 13.98 24.1042C13.8449 23.8651 13.7906 23.6512 13.7718 23.5145L21.6967 22.4215ZM19.419 18.387C18.0716 17.2963 16.4991 16.952 15.1103 16.952V24.952C15.1646 24.952 15.0997 24.959 14.9563 24.9155C14.8025 24.8688 14.5947 24.7744 14.3855 24.605L19.419 18.387ZM15.1103 16.952C14.0161 16.952 12.5413 17.1587 11.2383 18.136L16.0382 24.536C15.7229 24.7725 15.4363 24.8756 15.2719 24.9185C15.1147 24.9595 15.0464 24.952 15.1103 24.952V16.952ZM11.3721 18.0398C9.907 19.0471 9.12625 20.6314 9.12625 22.328H17.1263C17.1263 22.6589 17.0565 23.1146 16.8087 23.5946C16.5586 24.0791 16.2145 24.4189 15.9044 24.6322L11.3721 18.0398ZM9.12625 22.328C9.12625 23.3183 9.39792 24.3559 10.0408 25.2816C10.6605 26.174 11.4674 26.7367 12.1953 27.0861L15.6572 19.8739C15.8518 19.9673 16.2586 20.21 16.6117 20.7184C16.9879 21.2601 17.1263 21.8497 17.1263 22.328H9.12625ZM12.25 27.1118C13.2033 27.5518 14.3948 27.8808 15.6185 28.1527L17.354 20.3433C16.2737 20.1032 15.7586 19.9202 15.6025 19.8482L12.25 27.1118ZM15.4867 28.1211C16.7133 28.4376 17.5994 28.7263 18.2 28.9727L21.2365 21.5713C20.1731 21.1351 18.9045 20.741 17.4858 20.3749L15.4867 28.1211ZM18.2823 29.0054C18.4186 29.0578 18.5937 29.158 18.8142 29.4241L24.9743 24.3199C23.9575 23.0927 22.6819 22.1262 21.1542 21.5386L18.2823 29.0054ZM18.8949 29.5185C18.8384 29.4544 18.8242 29.4071 18.8317 29.4293C18.843 29.4629 18.8819 29.5997 18.8868 29.885L26.8857 29.747C26.8526 27.8309 26.3219 25.8442 24.8936 24.2255L18.8949 29.5185ZM18.8863 29.816C18.8863 30.0428 18.8395 30.1619 18.741 30.2992L25.2395 34.9648C26.3357 33.4381 26.8863 31.6798 26.8863 29.816H18.8863ZM18.7295 30.3152C18.666 30.4046 18.4748 30.6265 17.9037 30.8681L21.0208 38.2359C22.6684 37.5388 24.1625 36.4808 25.251 34.9488L18.7295 30.3152ZM17.8779 30.8792C17.3891 31.09 16.6791 31.256 15.6543 31.256V39.256C17.5307 39.256 19.3594 38.9526 21.0466 38.2248L17.8779 30.8792ZM29.626 34.136L27.7296 37.6579C27.7371 37.6619 27.7445 37.6659 27.752 37.6698L29.626 34.136ZM26.33 30.936L22.8537 32.9148C22.8614 32.9282 22.869 32.9415 22.8768 32.9548L26.33 30.936ZM26.362 21.24L29.8152 23.2588C29.8196 23.2512 29.8241 23.2435 29.8285 23.2359L26.362 21.24ZM29.69 18.008L31.564 21.5418L31.564 21.5418L29.69 18.008ZM39.162 18.008L37.288 21.5418L37.288 21.5418L39.162 18.008ZM42.49 21.24L39.0235 23.2359C39.0279 23.2435 39.0324 23.2512 39.0368 23.2588L42.49 21.24ZM42.458 30.936L39.0143 28.9011C39.0111 28.9065 39.008 28.9118 39.0048 28.9172L42.458 30.936ZM39.098 34.136L37.2459 30.5906C37.2386 30.5944 37.2313 30.5983 37.224 30.6022L39.098 34.136ZM37.018 29.368L34.15 26.5797C34.1366 26.5935 34.1232 26.6075 34.1099 26.6215L37.018 29.368ZM37.05 22.776L34.1014 25.4789C34.1148 25.4935 34.1283 25.5081 34.1419 25.5225L37.05 22.776ZM31.77 22.776L34.6804 25.52C34.6932 25.5064 34.706 25.4927 34.7186 25.4789L31.77 22.776ZM31.738 29.368L28.7484 32.0255C28.7619 32.0407 28.7756 32.0559 28.7894 32.0709L31.738 29.368ZM34.362 31.256C33.2009 31.256 32.2759 31.0136 31.5 30.6022L27.752 37.6698C29.7921 38.7517 32.0244 39.256 34.362 39.256V31.256ZM31.5224 30.6141C30.7963 30.2232 30.2307 29.6826 29.7832 28.9172L22.8768 32.9548C24.0507 34.9627 25.6823 36.5555 27.7296 37.6579L31.5224 30.6141ZM29.8063 28.9572C29.4126 28.2657 29.146 27.3484 29.146 26.072H21.146C21.146 28.5076 21.6687 30.833 22.8537 32.9148L29.8063 28.9572ZM29.146 26.072C29.146 24.8442 29.4111 23.95 29.8152 23.2588L22.9088 19.2212C21.6916 21.3033 21.146 23.6305 21.146 26.072H29.146ZM29.8285 23.2359C30.2713 22.4667 30.8345 21.9287 31.564 21.5418L27.816 14.4742C25.7295 15.5806 24.074 17.1973 22.8955 19.2441L29.8285 23.2359ZM31.564 21.5418C32.3399 21.1304 33.2649 20.888 34.426 20.888V12.888C32.0884 12.888 29.8561 13.3923 27.816 14.4742L31.564 21.5418ZM34.426 20.888C35.5871 20.888 36.5121 21.1304 37.288 21.5418L41.036 14.4742C38.9959 13.3923 36.7636 12.888 34.426 12.888V20.888ZM37.288 21.5418C38.0175 21.9287 38.5807 22.4667 39.0235 23.2359L45.9565 19.2441C44.778 17.1973 43.1225 15.5806 41.036 14.4742L37.288 21.5418ZM39.0368 23.2588C39.4409 23.95 39.706 24.8442 39.706 26.072H47.706C47.706 23.6305 47.1604 21.3033 45.9432 19.2212L39.0368 23.2588ZM39.706 26.072C39.706 27.2801 39.4392 28.1819 39.0143 28.9011L45.9017 32.9709C47.1408 30.8741 47.706 28.5333 47.706 26.072H39.706ZM39.0048 28.9172C38.5753 29.6519 38.0115 30.1907 37.2459 30.5906L40.9501 37.6814C43.0432 36.588 44.7194 34.9934 45.9112 32.9548L39.0048 28.9172ZM37.224 30.6022C36.4481 31.0136 35.5231 31.256 34.362 31.256V39.256C36.6996 39.256 38.9319 38.7517 40.972 37.6698L37.224 30.6022ZM34.362 34.52C36.521 34.52 38.4541 33.673 39.9261 32.1145L34.1099 26.6215C34.0938 26.6386 34.0953 26.634 34.117 26.6185C34.1394 26.6025 34.1739 26.5816 34.2183 26.5623C34.2628 26.543 34.3039 26.5312 34.3357 26.5248C34.3667 26.5187 34.3775 26.52 34.362 26.52V34.52ZM39.886 32.1563C41.5748 30.4192 42.138 28.1846 42.138 26.072H34.138C34.138 26.4465 34.0882 26.6294 34.0707 26.681C34.059 26.7155 34.0755 26.6563 34.15 26.5797L39.886 32.1563ZM42.138 26.072C42.138 23.9887 41.6017 21.7699 39.9581 20.0295L34.1419 25.5225C34.0649 25.4409 34.0523 25.3836 34.0676 25.4298C34.0882 25.4924 34.138 25.6871 34.138 26.072H42.138ZM39.9986 20.0731C38.5341 18.4754 36.5883 17.624 34.426 17.624V25.624C34.4416 25.624 34.4286 25.6253 34.3935 25.6183C34.3575 25.6111 34.3102 25.5975 34.258 25.5746C34.2059 25.5517 34.1631 25.5257 34.1321 25.5032C34.102 25.4811 34.0926 25.4693 34.1014 25.4789L39.9986 20.0731ZM34.426 17.624C32.2685 17.624 30.3033 18.4565 28.8214 20.0731L34.7186 25.4789C34.7239 25.4732 34.7116 25.4874 34.6795 25.5107C34.6467 25.5345 34.6037 25.56 34.5537 25.5817C34.5038 25.6033 34.461 25.6151 34.4321 25.6208C34.4042 25.6263 34.4 25.624 34.426 25.624V17.624ZM28.8596 20.0319C27.2114 21.7801 26.714 24.0241 26.714 26.072H34.714C34.714 25.6592 34.7653 25.4489 34.7873 25.3804C34.8039 25.3286 34.7862 25.4078 34.6804 25.52L28.8596 20.0319ZM26.714 26.072C26.714 28.098 27.1988 30.2822 28.7484 32.0255L34.7276 26.7105C34.8075 26.8004 34.8119 26.8521 34.7899 26.7812C34.7634 26.6961 34.714 26.4775 34.714 26.072H26.714ZM28.7894 32.0709C30.2539 33.6686 32.1997 34.52 34.362 34.52V26.52C34.3464 26.52 34.3594 26.5187 34.3945 26.5257C34.4305 26.5329 34.4778 26.5465 34.53 26.5694C34.5822 26.5923 34.6249 26.6183 34.6559 26.6408C34.686 26.6629 34.6954 26.6747 34.6866 26.6651L28.7894 32.0709ZM46.641 21.208L43.1418 19.27C43.1342 19.2838 43.1266 19.2977 43.1191 19.3116L46.641 21.208ZM49.809 18.008L47.8897 14.4985C47.882 14.5028 47.8742 14.5071 47.8664 14.5114L49.809 18.008ZM60.081 18.648L57.6097 21.7933C57.6169 21.7989 57.6242 21.8046 57.6314 21.8102L60.081 18.648ZM63.057 23.608V27.608C64.2688 27.608 65.4153 27.0587 66.1745 26.1142C66.9338 25.1698 67.2239 23.932 66.9636 22.7486L63.057 23.608ZM57.233 23.608L53.4687 24.9608C54.0394 26.5489 55.5454 27.608 57.233 27.608V23.608ZM51.985 22.744L55.1424 25.1998C55.1532 25.1858 55.164 25.1718 55.1746 25.1578L51.985 22.744ZM51.985 29.432L48.7954 31.8458C48.806 31.8598 48.8168 31.8738 48.8276 31.8878L51.985 29.432ZM57.233 28.536V24.536C55.5454 24.536 54.0394 25.5951 53.4687 27.1832L57.233 28.536ZM63.057 28.536L66.9599 29.4122C67.226 28.2269 66.939 26.9849 66.1799 26.0365C65.4208 25.0881 64.2718 24.536 63.057 24.536V28.536ZM60.081 33.464L57.6039 30.3233L57.6039 30.3233L60.081 33.464ZM49.809 34.136L47.8664 37.6326C47.8742 37.6369 47.882 37.6412 47.8898 37.6455L49.809 34.136ZM46.641 30.936L43.1191 32.8324C43.1266 32.8463 43.1342 32.8602 43.1418 32.874L46.641 30.936ZM49.521 26.072C49.521 24.7597 49.7817 23.8123 50.1629 23.1044L43.1191 19.3116C42.007 21.377 41.521 23.6723 41.521 26.072H49.521ZM50.1402 23.146C50.5572 22.3929 51.0831 21.876 51.7516 21.5046L47.8664 14.5114C45.8469 15.6333 44.2608 17.2497 43.1418 19.27L50.1402 23.146ZM51.7283 21.5175C52.4351 21.1309 53.3178 20.888 54.481 20.888V12.888C52.1455 12.888 49.9136 13.3917 47.8897 14.4985L51.7283 21.5175ZM54.481 20.888C55.992 20.888 56.9423 21.2688 57.6097 21.7933L62.5523 15.5027C60.2331 13.6805 57.45 12.888 54.481 12.888V20.888ZM57.6314 21.8102C58.303 22.3305 58.8524 23.1129 59.1504 24.4674L66.9636 22.7486C66.3229 19.8364 64.8883 17.3122 62.5306 15.4858L57.6314 21.8102ZM63.057 19.608H57.233V27.608H63.057V19.608ZM60.9973 22.2552C60.5447 20.9957 59.7631 19.7412 58.4883 18.8245C57.2038 17.9008 55.7522 17.56 54.385 17.56V25.56C54.4258 25.56 54.1528 25.5605 53.8177 25.3195C53.4922 25.0855 53.4307 24.855 53.4687 24.9608L60.9973 22.2552ZM54.385 17.56C52.1484 17.56 50.1602 18.5267 48.7954 20.3302L55.1746 25.1578C55.1394 25.2043 55.0197 25.3362 54.8027 25.4432C54.5874 25.5495 54.4207 25.56 54.385 25.56V17.56ZM48.8276 20.2882C47.4736 22.0291 47.089 24.1497 47.089 26.072H55.089C55.089 25.6104 55.1377 25.3323 55.1755 25.1919C55.211 25.0599 55.2242 25.0946 55.1424 25.1998L48.8276 20.2882ZM47.089 26.072C47.089 28.0046 47.4777 30.1046 48.7954 31.8458L55.1746 27.0182C55.2371 27.1008 55.2163 27.1132 55.1779 26.9693C55.1374 26.8174 55.089 26.5325 55.089 26.072H47.089ZM48.8276 31.8878C50.2094 33.6643 52.192 34.584 54.385 34.584V26.584C54.4046 26.584 54.5574 26.5908 54.7639 26.6899C54.9743 26.7909 55.0982 26.9195 55.1424 26.9762L48.8276 31.8878ZM54.385 34.584C55.7522 34.584 57.2038 34.2432 58.4883 33.3195C59.7631 32.4028 60.5447 31.1483 60.9973 29.8888L53.4687 27.1832C53.4307 27.289 53.4922 27.0585 53.8177 26.8245C54.1528 26.5835 54.4258 26.584 54.385 26.584V34.584ZM57.233 32.536H63.057V24.536H57.233V32.536ZM59.1541 27.6598C58.8623 28.9599 58.3169 29.761 57.6039 30.3233L62.5581 36.6047C64.8745 34.7777 66.313 32.2935 66.9599 29.4122L59.1541 27.6598ZM57.6039 30.3233C56.8985 30.8797 55.9423 31.256 54.481 31.256V39.256C57.457 39.256 60.2342 38.4376 62.5581 36.6047L57.6039 30.3233ZM54.481 31.256C53.3178 31.256 52.4351 31.0131 51.7282 30.6265L47.8898 37.6455C49.9136 38.7523 52.1455 39.256 54.481 39.256V31.256ZM51.7516 30.6394C51.0831 30.268 50.5572 29.7511 50.1402 28.998L43.1418 32.874C44.2608 34.8943 45.8469 36.5107 47.8664 37.6326L51.7516 30.6394ZM50.1629 29.0396C49.7817 28.3317 49.521 27.3843 49.521 26.072H41.521C41.521 28.4717 42.007 30.767 43.1191 32.8324L50.1629 29.0396ZM66.368 14.456L63.5915 17.3354C63.6263 17.369 63.6618 17.402 63.6978 17.4343L66.368 14.456ZM66.368 10.232L69.0898 13.1632L69.0937 13.1596L66.368 10.232ZM71.04 10.232L68.2635 13.1114C68.2983 13.145 68.3338 13.178 68.3698 13.2103L71.04 10.232ZM71.04 14.456L73.7618 17.3872L73.7657 17.3836L71.04 14.456ZM71.456 17.144H75.456C75.456 14.9349 73.6651 13.144 71.456 13.144V17.144ZM71.456 35V39C73.6651 39 75.456 37.2091 75.456 35H71.456ZM65.984 35H61.984C61.984 37.2091 63.7749 39 65.984 39V35ZM65.984 17.144V13.144C63.7749 13.144 61.984 14.9349 61.984 17.144H65.984ZM68.736 11.288C68.642 11.288 68.6608 11.2749 68.7499 11.3062C68.7934 11.3214 68.8448 11.3443 68.8989 11.3763C68.9531 11.4083 69.0001 11.4436 69.0382 11.4777L63.6978 17.4343C65.1633 18.7481 66.9536 19.288 68.736 19.288V11.288ZM69.1445 11.5766C69.2001 11.6302 69.3001 11.7494 69.3783 11.9338C69.4565 12.118 69.472 12.2708 69.472 12.344H61.472C61.472 14.2588 62.21 16.0032 63.5915 17.3354L69.1445 11.5766ZM69.472 12.344C69.472 12.3919 69.4616 12.5418 69.3783 12.7382C69.2932 12.9388 69.1765 13.0827 69.0898 13.1632L63.6462 7.30083C62.1917 8.6514 61.472 10.4371 61.472 12.344H69.472ZM69.0937 13.1596C69.0139 13.2338 68.906 13.3012 68.795 13.3417C68.6925 13.3791 68.6579 13.368 68.736 13.368V5.368C66.9123 5.368 65.1028 5.94469 63.6423 7.30442L69.0937 13.1596ZM68.736 13.368C68.7941 13.368 68.7365 13.3762 68.6115 13.3293C68.4777 13.2791 68.3535 13.1982 68.2635 13.1114L73.8165 7.35262C72.374 5.96161 70.5631 5.368 68.736 5.368V13.368ZM68.3698 13.2103C68.2894 13.1382 68.1666 12.996 68.0739 12.7851C67.9824 12.5768 67.968 12.4102 67.968 12.344H75.968C75.968 10.389 75.2008 8.59015 73.7102 7.25372L68.3698 13.2103ZM67.968 12.344C67.968 12.252 67.988 12.0825 68.0739 11.8869C68.1592 11.6927 68.2648 11.5745 68.3143 11.5284L73.7657 17.3836C75.1823 16.0646 75.968 14.3064 75.968 12.344H67.968ZM68.3182 11.5248C68.4142 11.4357 68.5367 11.3614 68.6574 11.3178C68.769 11.2775 68.8103 11.288 68.736 11.288V19.288C70.5203 19.288 72.3126 18.7328 73.7618 17.3872L68.3182 11.5248ZM67.456 17.144V35H75.456V17.144H67.456ZM71.456 31H65.984V39H71.456V31ZM69.984 35V17.144H61.984V35H69.984ZM65.984 21.144H71.456V13.144H65.984V21.144ZM75.3575 21.208L71.7908 19.3972C71.7834 19.4119 71.7761 19.4265 71.7688 19.4413L75.3575 21.208ZM78.2055 18.008L80.3255 21.4L80.3255 21.4L78.2055 18.008ZM85.5015 17.656L83.5861 21.1676C83.5971 21.1736 83.6081 21.1795 83.6191 21.1854L85.5015 17.656ZM87.7095 19.672L84.3029 21.7684C85.2408 23.2925 87.0769 24.0082 88.7989 23.5208C90.5208 23.0334 91.7095 21.4616 91.7095 19.672H87.7095ZM87.7095 17.144V13.144C85.5004 13.144 83.7095 14.9349 83.7095 17.144H87.7095ZM93.1815 17.144H97.1815C97.1815 14.9349 95.3906 13.144 93.1815 13.144V17.144ZM93.1815 35V39C95.3906 39 97.1815 37.2091 97.1815 35H93.1815ZM87.7095 35H83.7095C83.7095 37.2091 85.5004 39 87.7095 39V35ZM87.7095 32.472H91.7095C91.7095 30.696 90.5385 29.1327 88.8342 28.6334C87.1299 28.134 85.3004 28.8182 84.342 30.3133L87.7095 32.472ZM85.4695 34.488L83.5871 30.9586C83.5761 30.9645 83.5651 30.9704 83.5541 30.9764L85.4695 34.488ZM78.2055 34.136L76.0425 37.5007C76.0568 37.5099 76.0711 37.519 76.0855 37.528L78.2055 34.136ZM75.3575 30.904L71.7582 32.6491C71.7689 32.6711 71.7798 32.693 71.7908 32.7148L75.3575 30.904ZM86.5575 22.84L83.6516 25.5888C83.6645 25.6024 83.6775 25.616 83.6906 25.6294L86.5575 22.84ZM81.0215 22.84L78.1546 20.0506L78.1535 20.0517L81.0215 22.84ZM81.0215 29.304L78.0793 32.0139C78.104 32.0408 78.1291 32.0673 78.1546 32.0934L81.0215 29.304ZM86.5575 29.304L83.6906 26.5146C83.6775 26.528 83.6645 26.5416 83.6516 26.5552L86.5575 29.304ZM78.3335 26.04C78.3335 24.7043 78.5802 23.7181 78.9462 22.9747L71.7688 19.4413C70.7695 21.4712 70.3335 23.7064 70.3335 26.04H78.3335ZM78.9242 23.0188C79.334 22.2115 79.8108 21.7217 80.3255 21.4L76.0855 14.616C74.2109 15.7876 72.789 17.4311 71.7908 19.3972L78.9242 23.0188ZM80.3255 21.4C80.8552 21.069 81.4479 20.888 82.2055 20.888V12.888C80.0191 12.888 77.9452 13.4537 76.0855 14.616L80.3255 21.4ZM82.2055 20.888C82.9137 20.888 83.3311 21.0285 83.5861 21.1676L87.4169 14.1444C85.7945 13.2595 84.0146 12.888 82.2055 12.888V20.888ZM83.6191 21.1854C84.0259 21.4023 84.2039 21.6076 84.3029 21.7684L91.1161 17.5756C90.1911 16.0724 88.8971 14.9337 87.3839 14.1266L83.6191 21.1854ZM91.7095 19.672V17.144H83.7095V19.672H91.7095ZM87.7095 21.144H93.1815V13.144H87.7095V21.144ZM89.1815 17.144V35H97.1815V17.144H89.1815ZM93.1815 31H87.7095V39H93.1815V31ZM91.7095 35V32.472H83.7095V35H91.7095ZM84.342 30.3133C84.2146 30.512 84.0054 30.7355 83.5871 30.9586L87.3519 38.0174C88.8536 37.2165 90.1377 36.096 91.077 34.6307L84.342 30.3133ZM83.5541 30.9764C83.2991 31.1155 82.8817 31.256 82.1735 31.256V39.256C83.9826 39.256 85.7625 38.8845 87.3849 37.9996L83.5541 30.9764ZM82.1735 31.256C81.449 31.256 80.8648 31.0811 80.3255 30.744L76.0855 37.528C77.9355 38.6842 79.9966 39.256 82.1735 39.256V31.256ZM80.3685 30.7713C79.8273 30.4233 79.338 29.9084 78.9242 29.0932L71.7908 32.7148C72.785 34.6729 74.1944 36.3127 76.0425 37.5007L80.3685 30.7713ZM78.9568 29.1589C78.5796 28.381 78.3335 27.3739 78.3335 26.04H70.3335C70.3335 28.3755 70.7701 30.611 71.7582 32.6491L78.9568 29.1589ZM91.7095 26.072C91.7095 23.9282 91.084 21.7563 89.4244 20.0506L83.6906 25.6294C83.6798 25.6184 83.6675 25.6029 83.6575 25.5867C83.6478 25.571 83.648 25.567 83.6537 25.583C83.6655 25.6162 83.7095 25.7607 83.7095 26.072H91.7095ZM89.4634 20.0912C87.96 18.502 85.9912 17.656 83.8055 17.656V25.656C83.8348 25.656 83.8366 25.6586 83.8171 25.6547C83.7967 25.6507 83.7652 25.6421 83.7287 25.6264C83.6921 25.6106 83.6639 25.5936 83.6465 25.5812C83.6297 25.5692 83.6322 25.5683 83.6516 25.5888L89.4634 20.0912ZM83.8055 17.656C81.6228 17.656 79.6653 18.498 78.1546 20.0506L83.8884 25.6294C83.9153 25.6018 83.9256 25.596 83.9172 25.6018C83.9081 25.6082 83.888 25.6206 83.859 25.6329C83.8298 25.6453 83.8043 25.6523 83.788 25.6555C83.7724 25.6585 83.7763 25.656 83.8055 25.656V17.656ZM78.1535 20.0517C76.4963 21.7562 75.9015 23.9321 75.9015 26.04H83.9015C83.9015 25.7166 83.9462 25.5681 83.9569 25.5374C83.9618 25.5234 83.96 25.5327 83.9456 25.5562C83.9309 25.5803 83.9112 25.606 83.8895 25.6283L78.1535 20.0517ZM75.9015 26.04C75.9015 28.1585 76.4997 30.2989 78.0793 32.0139L83.9637 26.5941C83.9818 26.6138 83.9799 26.6254 83.965 26.5818C83.9456 26.5254 83.9015 26.3613 83.9015 26.04H75.9015ZM78.1546 32.0934C79.6653 33.646 81.6228 34.488 83.8055 34.488V26.488C83.7763 26.488 83.7724 26.4855 83.788 26.4885C83.8043 26.4917 83.8298 26.4987 83.859 26.5111C83.888 26.5234 83.9081 26.5358 83.9172 26.5422C83.9256 26.548 83.9153 26.5422 83.8884 26.5146L78.1546 32.0934ZM83.8055 34.488C85.9912 34.488 87.96 33.642 89.4634 32.0528L83.6516 26.5552C83.6322 26.5757 83.6297 26.5748 83.6465 26.5628C83.6639 26.5504 83.6921 26.5334 83.7287 26.5176C83.7652 26.5019 83.7967 26.4933 83.8171 26.4893C83.8366 26.4854 83.8348 26.488 83.8055 26.488V34.488ZM89.4244 32.0934C91.084 30.3877 91.7095 28.2158 91.7095 26.072H83.7095C83.7095 26.3833 83.6655 26.5278 83.6537 26.561C83.648 26.577 83.6478 26.573 83.6575 26.5573C83.6675 26.5411 83.6798 26.5256 83.6906 26.5146L89.4244 32.0934ZM102.612 11.32H106.612C106.612 9.11086 104.821 7.32 102.612 7.32V11.32ZM102.612 35V39C104.821 39 106.612 37.2091 106.612 35H102.612ZM97.1403 35H93.1403C93.1403 37.2091 94.9311 39 97.1403 39V35ZM97.1403 11.32V7.32C94.9311 7.32 93.1403 9.11086 93.1403 11.32H97.1403ZM98.6123 11.32V35H106.612V11.32H98.6123ZM102.612 31H97.1403V39H102.612V31ZM101.14 35V11.32H93.1403V35H101.14ZM97.1403 15.32H102.612V7.32H97.1403V15.32ZM116.658 17.656L114.742 21.1676C114.753 21.1736 114.764 21.1795 114.775 21.1854L116.658 17.656ZM118.866 19.672L115.459 21.7684C116.397 23.2925 118.233 24.0082 119.955 23.5208C121.677 23.0334 122.866 21.4616 122.866 19.672H118.866ZM118.866 17.144V13.144C116.657 13.144 114.866 14.9349 114.866 17.144H118.866ZM124.338 17.144H128.338C128.338 14.9349 126.547 13.144 124.338 13.144V17.144ZM123.346 39.416L119.768 37.6271C119.757 37.6501 119.745 37.6731 119.734 37.6963L123.346 39.416ZM120.37 42.616L118.344 39.1669C118.336 39.1716 118.328 39.1764 118.32 39.1811L120.37 42.616ZM108.978 41.912L111.411 38.7369C111.402 38.7302 111.393 38.7236 111.384 38.717L108.978 41.912ZM106.162 36.856V32.856C105.025 32.856 103.941 33.3399 103.183 34.1867C102.424 35.0335 102.061 36.1632 102.186 37.2934L106.162 36.856ZM111.57 36.856L115.45 35.8859C115.005 34.1052 113.405 32.856 111.57 32.856V36.856ZM112.786 38.456L114.926 35.0767C114.899 35.0595 114.871 35.0426 114.844 35.026L112.786 38.456ZM117.842 38.072L115.106 35.1539C115.075 35.1833 115.044 35.2132 115.013 35.2436L117.842 38.072ZM118.866 32.44H122.866C122.866 30.664 121.695 29.1007 119.99 28.6014C118.286 28.102 116.457 28.7862 115.498 30.2813L118.866 32.44ZM116.658 34.488L118.573 37.9996C118.593 37.9885 118.614 37.9773 118.634 37.9658L116.658 34.488ZM109.362 34.136L107.199 37.5007C107.213 37.5099 107.227 37.519 107.242 37.528L109.362 34.136ZM106.514 30.904L102.914 32.6491C102.925 32.6711 102.936 32.693 102.947 32.7148L106.514 30.904ZM106.514 21.208L102.947 19.3972C102.94 19.4119 102.932 19.4265 102.925 19.4413L106.514 21.208ZM109.362 18.008L111.482 21.4L111.482 21.4L109.362 18.008ZM117.714 22.84L114.808 25.5888C114.821 25.6024 114.834 25.616 114.847 25.6294L117.714 22.84ZM112.178 22.84L109.311 20.0506L109.31 20.0517L112.178 22.84ZM112.178 29.304L109.236 32.0139C109.26 32.0408 109.285 32.0673 109.311 32.0934L112.178 29.304ZM117.714 29.304L114.847 26.5146C114.834 26.528 114.821 26.5416 114.808 26.5552L117.714 29.304ZM113.362 20.888C114.07 20.888 114.487 21.0285 114.742 21.1676L118.573 14.1444C116.951 13.2595 115.171 12.888 113.362 12.888V20.888ZM114.775 21.1854C115.182 21.4023 115.36 21.6076 115.459 21.7684L122.272 17.5756C121.347 16.0724 120.053 14.9337 118.54 14.1266L114.775 21.1854ZM122.866 19.672V17.144H114.866V19.672H122.866ZM118.866 21.144H124.338V13.144H118.866V21.144ZM120.338 17.144V34.968H128.338V17.144H120.338ZM120.338 34.968C120.338 36.0594 120.122 36.919 119.768 37.6271L126.923 41.2049C127.892 39.2676 128.338 37.162 128.338 34.968H120.338ZM119.734 37.6963C119.455 38.2831 119.033 38.7624 118.344 39.1669L122.395 46.0651C124.395 44.891 125.957 43.2369 126.957 41.1357L119.734 37.6963ZM118.32 39.1811C117.771 39.5085 116.876 39.8 115.41 39.8V47.8C117.912 47.8 120.323 47.3022 122.42 46.0509L118.32 39.1811ZM115.41 39.8C113.397 39.8 112.181 39.3275 111.411 38.7369L106.545 45.0871C109.059 47.0138 112.132 47.8 115.41 47.8V39.8ZM111.384 38.717C110.665 38.1751 110.258 37.5095 110.138 36.4186L102.186 37.2934C102.535 40.4692 104.005 43.1742 106.571 45.107L111.384 38.717ZM106.162 40.856H111.57V32.856H106.162V40.856ZM107.689 37.8261C108.134 39.6053 109.239 40.9929 110.728 41.886L114.844 35.026C114.91 35.066 115.048 35.1654 115.186 35.3477C115.328 35.5339 115.411 35.7287 115.45 35.8859L107.689 37.8261ZM110.646 41.8353C112.063 42.7331 113.638 43.064 115.154 43.064V35.064C114.97 35.064 114.877 35.0441 114.853 35.0377C114.833 35.0325 114.867 35.0391 114.926 35.0767L110.646 41.8353ZM115.154 43.064C117.109 43.064 119.106 42.4641 120.67 40.9004L115.013 35.2436C115.051 35.2057 115.099 35.1668 115.153 35.1323C115.207 35.0979 115.255 35.076 115.289 35.0634C115.357 35.0381 115.331 35.064 115.154 35.064V43.064ZM120.578 40.9901C122.409 39.2733 122.866 36.9251 122.866 34.968H114.866C114.866 35.1682 114.854 35.3155 114.84 35.4171C114.826 35.5188 114.811 35.563 114.811 35.5628C114.812 35.5613 114.828 35.511 114.877 35.4313C114.927 35.3494 115.002 35.2511 115.106 35.1539L120.578 40.9901ZM122.866 34.968V32.44H114.866V34.968H122.866ZM115.498 30.2813C115.347 30.518 115.11 30.767 114.682 31.0102L118.634 37.9658C120.083 37.1423 121.318 36.026 122.233 34.5987L115.498 30.2813ZM114.742 30.9764C114.487 31.1155 114.07 31.256 113.362 31.256V39.256C115.171 39.256 116.951 38.8845 118.573 37.9996L114.742 30.9764ZM113.362 31.256C112.604 31.256 112.011 31.075 111.482 30.744L107.242 37.528C109.101 38.6903 111.175 39.256 113.362 39.256V31.256ZM111.525 30.7713C110.984 30.4233 110.494 29.9084 110.08 29.0932L102.947 32.7148C103.941 34.6729 105.351 36.3127 107.199 37.5007L111.525 30.7713ZM110.113 29.1589C109.736 28.381 109.49 27.3739 109.49 26.04H101.49C101.49 28.3755 101.926 30.611 102.914 32.6491L110.113 29.1589ZM109.49 26.04C109.49 24.7043 109.736 23.7181 110.102 22.9747L102.925 19.4413C101.926 21.4712 101.49 23.7064 101.49 26.04H109.49ZM110.08 23.0188C110.49 22.2115 110.967 21.7217 111.482 21.4L107.242 14.616C105.367 15.7876 103.945 17.4311 102.947 19.3972L110.08 23.0188ZM111.482 21.4C112.011 21.069 112.604 20.888 113.362 20.888V12.888C111.175 12.888 109.101 13.4537 107.242 14.616L111.482 21.4ZM122.866 26.072C122.866 23.9282 122.24 21.7563 120.581 20.0506L114.847 25.6294C114.836 25.6184 114.824 25.6029 114.814 25.5867C114.804 25.571 114.804 25.567 114.81 25.583C114.822 25.6162 114.866 25.7607 114.866 26.072H122.866ZM120.62 20.0912C119.116 18.502 117.147 17.656 114.962 17.656V25.656C114.991 25.656 114.993 25.6586 114.973 25.6547C114.953 25.6507 114.921 25.6421 114.885 25.6264C114.848 25.6106 114.82 25.5936 114.803 25.5812C114.786 25.5692 114.788 25.5683 114.808 25.5888L120.62 20.0912ZM114.962 17.656C112.779 17.656 110.822 18.498 109.311 20.0506L115.045 25.6294C115.072 25.6018 115.082 25.596 115.073 25.6018C115.064 25.6082 115.044 25.6206 115.015 25.6329C114.986 25.6453 114.961 25.6523 114.944 25.6555C114.929 25.6585 114.933 25.656 114.962 25.656V17.656ZM109.31 20.0517C107.653 21.7562 107.058 23.9321 107.058 26.04H115.058C115.058 25.7166 115.102 25.5681 115.113 25.5374C115.118 25.5234 115.116 25.5327 115.102 25.5562C115.087 25.5803 115.067 25.606 115.046 25.6283L109.31 20.0517ZM107.058 26.04C107.058 28.1585 107.656 30.2989 109.236 32.0139L115.12 26.5941C115.138 26.6138 115.136 26.6254 115.121 26.5818C115.102 26.5254 115.058 26.3613 115.058 26.04H107.058ZM109.311 32.0934C110.822 33.646 112.779 34.488 114.962 34.488V26.488C114.933 26.488 114.929 26.4855 114.944 26.4885C114.961 26.4917 114.986 26.4987 115.015 26.5111C115.044 26.5234 115.064 26.5358 115.073 26.5422C115.082 26.548 115.072 26.5422 115.045 26.5146L109.311 32.0934ZM114.962 34.488C117.147 34.488 119.116 33.642 120.62 32.0528L114.808 26.5552C114.788 26.5757 114.786 26.5748 114.803 26.5628C114.82 26.5504 114.848 26.5334 114.885 26.5176C114.921 26.5019 114.953 26.4933 114.973 26.4893C114.993 26.4854 114.991 26.488 114.962 26.488V34.488ZM120.581 32.0934C122.24 30.3877 122.866 28.2158 122.866 26.072H114.866C114.866 26.3833 114.822 26.5278 114.81 26.561C114.804 26.577 114.804 26.573 114.814 26.5573C114.824 26.5411 114.836 26.5256 114.847 26.5146L120.581 32.0934ZM133.769 20.12H129.769C129.769 21.8901 130.932 23.4498 132.629 23.9542C134.325 24.4586 136.152 23.7878 137.119 22.3051L133.769 20.12ZM136.169 17.816L138.17 21.2795C138.189 21.2685 138.208 21.2573 138.226 21.246L136.169 17.816ZM139.369 16.952H143.369C143.369 14.7429 141.578 12.952 139.369 12.952V16.952ZM139.369 22.744V26.744C141.578 26.744 143.369 24.9531 143.369 22.744H139.369ZM134.793 23.64L137.372 26.6972C137.39 26.6817 137.408 26.6661 137.427 26.6503L134.793 23.64ZM133.769 35V39C135.978 39 137.769 37.2091 137.769 35H133.769ZM128.297 35H124.297C124.297 37.2091 126.087 39 128.297 39V35ZM128.297 17.144V13.144C126.087 13.144 124.297 14.9349 124.297 17.144H128.297ZM133.769 17.144H137.769C137.769 14.9349 135.978 13.144 133.769 13.144V17.144ZM137.119 22.3051C137.436 21.8192 137.784 21.502 138.17 21.2795L134.167 14.3525C132.633 15.2393 131.381 16.4581 130.418 17.9349L137.119 22.3051ZM138.226 21.246C138.534 21.0613 138.884 20.952 139.369 20.952V12.952C137.507 12.952 135.723 13.4187 134.111 14.386L138.226 21.246ZM135.369 16.952V22.744H143.369V16.952H135.369ZM139.369 18.744H137.865V26.744H139.369V18.744ZM137.865 18.744C136.004 18.744 133.862 19.1394 132.158 20.6297L137.427 26.6503C137.259 26.7968 137.142 26.8227 137.193 26.808C137.255 26.7896 137.461 26.744 137.865 26.744V18.744ZM132.213 20.5828C130.184 22.2951 129.769 24.8069 129.769 26.712H137.769C137.769 26.4959 137.781 26.3394 137.796 26.234C137.81 26.1281 137.824 26.0906 137.819 26.1049C137.814 26.1207 137.786 26.199 137.714 26.3122C137.639 26.429 137.527 26.5663 137.372 26.6972L132.213 20.5828ZM129.769 26.712V35H137.769V26.712H129.769ZM133.769 31H128.297V39H133.769V31ZM132.297 35V17.144H124.297V35H132.297ZM128.297 21.144H133.769V13.144H128.297V21.144ZM129.769 17.144V20.12H137.769V17.144H129.769ZM141.92 21.208L138.353 19.3972C138.346 19.4119 138.339 19.4265 138.331 19.4413L141.92 21.208ZM144.768 18.008L146.888 21.4L146.888 21.4L144.768 18.008ZM152.064 17.656L150.149 21.1676C150.16 21.1736 150.171 21.1795 150.182 21.1854L152.064 17.656ZM154.272 19.672L150.865 21.7684C151.803 23.2925 153.639 24.0082 155.361 23.5208C157.083 23.0334 158.272 21.4616 158.272 19.672H154.272ZM154.272 17.144V13.144C152.063 13.144 150.272 14.9349 150.272 17.144H154.272ZM159.744 17.144H163.744C163.744 14.9349 161.953 13.144 159.744 13.144V17.144ZM159.744 35V39C161.953 39 163.744 37.2091 163.744 35H159.744ZM154.272 35H150.272C150.272 37.2091 152.063 39 154.272 39V35ZM154.272 32.472H158.272C158.272 30.696 157.101 29.1327 155.397 28.6334C153.692 28.134 151.863 28.8182 150.904 30.3133L154.272 32.472ZM152.032 34.488L150.15 30.9586C150.139 30.9645 150.128 30.9704 150.117 30.9764L152.032 34.488ZM144.768 34.136L142.605 37.5007C142.619 37.5099 142.634 37.519 142.648 37.528L144.768 34.136ZM141.92 30.904L138.321 32.6491C138.331 32.6711 138.342 32.693 138.353 32.7148L141.92 30.904ZM153.12 22.84L150.214 25.5888C150.227 25.6024 150.24 25.616 150.253 25.6294L153.12 22.84ZM147.584 22.84L144.717 20.0506L144.716 20.0517L147.584 22.84ZM147.584 29.304L144.642 32.0139C144.667 32.0408 144.692 32.0673 144.717 32.0934L147.584 29.304ZM153.12 29.304L150.253 26.5146C150.24 26.528 150.227 26.5416 150.214 26.5552L153.12 29.304ZM144.896 26.04C144.896 24.7043 145.143 23.7181 145.509 22.9747L138.331 19.4413C137.332 21.4712 136.896 23.7064 136.896 26.04H144.896ZM145.487 23.0188C145.896 22.2115 146.373 21.7217 146.888 21.4L142.648 14.616C140.773 15.7876 139.352 17.4311 138.353 19.3972L145.487 23.0188ZM146.888 21.4C147.418 21.069 148.01 20.888 148.768 20.888V12.888C146.582 12.888 144.508 13.4537 142.648 14.616L146.888 21.4ZM148.768 20.888C149.476 20.888 149.894 21.0285 150.149 21.1676L153.979 14.1444C152.357 13.2595 150.577 12.888 148.768 12.888V20.888ZM150.182 21.1854C150.588 21.4023 150.766 21.6076 150.865 21.7684L157.679 17.5756C156.754 16.0724 155.46 14.9337 153.946 14.1266L150.182 21.1854ZM158.272 19.672V17.144H150.272V19.672H158.272ZM154.272 21.144H159.744V13.144H154.272V21.144ZM155.744 17.144V35H163.744V17.144H155.744ZM159.744 31H154.272V39H159.744V31ZM158.272 35V32.472H150.272V35H158.272ZM150.904 30.3133C150.777 30.512 150.568 30.7355 150.15 30.9586L153.914 38.0174C155.416 37.2165 156.7 36.096 157.64 34.6307L150.904 30.3133ZM150.117 30.9764C149.862 31.1155 149.444 31.256 148.736 31.256V39.256C150.545 39.256 152.325 38.8845 153.947 37.9996L150.117 30.9764ZM148.736 31.256C148.012 31.256 147.427 31.0811 146.888 30.744L142.648 37.528C144.498 38.6842 146.559 39.256 148.736 39.256V31.256ZM146.931 30.7713C146.39 30.4233 145.901 29.9084 145.487 29.0932L138.353 32.7148C139.347 34.6729 140.757 36.3127 142.605 37.5007L146.931 30.7713ZM145.519 29.1589C145.142 28.381 144.896 27.3739 144.896 26.04H136.896C136.896 28.3755 137.333 30.611 138.321 32.6491L145.519 29.1589ZM158.272 26.072C158.272 23.9282 157.647 21.7563 155.987 20.0506L150.253 25.6294C150.242 25.6184 150.23 25.6029 150.22 25.5867C150.21 25.571 150.21 25.567 150.216 25.583C150.228 25.6162 150.272 25.7607 150.272 26.072H158.272ZM156.026 20.0912C154.523 18.502 152.554 17.656 150.368 17.656V25.656C150.397 25.656 150.399 25.6586 150.38 25.6547C150.359 25.6507 150.328 25.6421 150.291 25.6264C150.255 25.6106 150.226 25.5936 150.209 25.5812C150.192 25.5692 150.195 25.5683 150.214 25.5888L156.026 20.0912ZM150.368 17.656C148.185 17.656 146.228 18.498 144.717 20.0506L150.451 25.6294C150.478 25.6018 150.488 25.596 150.48 25.6018C150.471 25.6082 150.451 25.6206 150.421 25.6329C150.392 25.6453 150.367 25.6523 150.35 25.6555C150.335 25.6585 150.339 25.656 150.368 25.656V17.656ZM144.716 20.0517C143.059 21.7562 142.464 23.9321 142.464 26.04H150.464C150.464 25.7166 150.509 25.5681 150.519 25.5374C150.524 25.5234 150.522 25.5327 150.508 25.5562C150.493 25.5803 150.474 25.606 150.452 25.6283L144.716 20.0517ZM142.464 26.04C142.464 28.1585 143.062 30.2989 144.642 32.0139L150.526 26.5941C150.544 26.6138 150.542 26.6254 150.527 26.5818C150.508 26.5254 150.464 26.3613 150.464 26.04H142.464ZM144.717 32.0934C146.228 33.646 148.185 34.488 150.368 34.488V26.488C150.339 26.488 150.335 26.4855 150.35 26.4885C150.367 26.4917 150.392 26.4987 150.421 26.5111C150.451 26.5234 150.471 26.5358 150.48 26.5422C150.488 26.548 150.478 26.5422 150.451 26.5146L144.717 32.0934ZM150.368 34.488C152.554 34.488 154.523 33.642 156.026 32.0528L150.214 26.5552C150.195 26.5757 150.192 26.5748 150.209 26.5628C150.226 26.5504 150.255 26.5334 150.291 26.5176C150.328 26.5019 150.359 26.4933 150.38 26.4893C150.399 26.4854 150.397 26.488 150.368 26.488V34.488ZM155.987 32.0934C157.647 30.3877 158.272 28.2158 158.272 26.072H150.272C150.272 26.3833 150.228 26.5278 150.216 26.561C150.21 26.577 150.21 26.573 150.22 26.5573C150.23 26.5411 150.242 26.5256 150.253 26.5146L155.987 32.0934ZM191.767 18.968L188.893 21.7504C188.901 21.7582 188.908 21.766 188.916 21.7737L191.767 18.968ZM193.751 35V39C195.96 39 197.751 37.2091 197.751 35H193.751ZM188.311 35H184.311C184.311 37.2091 186.102 39 188.311 39V35ZM187.383 22.648L184.459 25.3773C184.49 25.4109 184.522 25.4439 184.554 25.4764L187.383 22.648ZM182.359 22.648L179.483 19.8679L179.481 19.8696L182.359 22.648ZM181.463 35V39C183.672 39 185.463 37.2091 185.463 35H181.463ZM176.023 35H172.023C172.023 37.2091 173.814 39 176.023 39V35ZM175.095 22.648L172.171 25.3773C172.202 25.4109 172.234 25.4439 172.266 25.4764L175.095 22.648ZM170.071 22.648L167.195 19.8679L167.193 19.8696L170.071 22.648ZM169.175 35V39C171.384 39 173.175 37.2091 173.175 35H169.175ZM163.703 35H159.703C159.703 37.2091 161.494 39 163.703 39V35ZM163.703 17.144V13.144C161.494 13.144 159.703 14.9349 159.703 17.144H163.703ZM169.175 17.144H173.175C173.175 14.9349 171.384 13.144 169.175 13.144V17.144ZM169.175 19.384H165.175C165.175 21.1091 166.281 22.6399 167.919 23.1816C169.556 23.7234 171.357 23.1541 172.386 21.7693L169.175 19.384ZM171.351 17.624L173.07 21.2354C173.094 21.2244 173.117 21.2132 173.14 21.2017L171.351 17.624ZM177.975 17.816L176.044 21.3194C176.054 21.3248 176.064 21.3302 176.074 21.3356L177.975 17.816ZM180.471 20.28L176.981 22.2344C177.67 23.4652 178.957 24.242 180.367 24.2786C181.777 24.3153 183.102 23.6065 183.854 22.4132L180.471 20.28ZM186.487 20.952C187.84 20.952 188.484 21.3282 188.893 21.7504L194.64 16.1856C192.447 13.9198 189.571 12.952 186.487 12.952V20.952ZM188.916 21.7737C189.319 22.1832 189.751 22.9343 189.751 24.568H197.751C197.751 21.423 196.86 18.4408 194.618 16.1623L188.916 21.7737ZM189.751 24.568V35H197.751V24.568H189.751ZM193.751 31H188.311V39H193.751V31ZM192.311 35V25.304H184.311V35H192.311ZM192.311 25.304C192.311 23.4398 191.795 21.4034 190.211 19.8196L184.554 25.4764C184.487 25.4094 184.43 25.336 184.385 25.2624C184.34 25.1897 184.315 25.1304 184.303 25.0954C184.28 25.0297 184.311 25.0784 184.311 25.304H192.311ZM190.307 19.9187C188.792 18.2954 186.801 17.688 184.887 17.688V25.688C185.023 25.688 184.997 25.7085 184.875 25.6614C184.813 25.6377 184.739 25.6013 184.661 25.5486C184.582 25.4957 184.514 25.4364 184.459 25.3773L190.307 19.9187ZM184.887 17.688C182.967 17.688 181.002 18.2962 179.483 19.8679L185.235 25.4281C185.188 25.4764 185.129 25.5262 185.061 25.5711C184.993 25.616 184.928 25.6472 184.875 25.6674C184.768 25.7081 184.752 25.688 184.887 25.688V17.688ZM179.481 19.8696C177.947 21.4587 177.463 23.4765 177.463 25.304H185.463C185.463 25.0654 185.495 25.0022 185.477 25.0546C185.467 25.0833 185.445 25.1385 185.403 25.2092C185.36 25.2809 185.305 25.3557 185.236 25.4264L179.481 19.8696ZM177.463 25.304V35H185.463V25.304H177.463ZM181.463 31H176.023V39H181.463V31ZM180.023 35V25.304H172.023V35H180.023ZM180.023 25.304C180.023 23.4398 179.507 21.4034 177.923 19.8196L172.266 25.4764C172.199 25.4094 172.142 25.336 172.097 25.2624C172.052 25.1897 172.027 25.1304 172.015 25.0954C171.992 25.0297 172.023 25.0784 172.023 25.304H180.023ZM178.019 19.9187C176.504 18.2954 174.513 17.688 172.599 17.688V25.688C172.735 25.688 172.709 25.7085 172.587 25.6614C172.525 25.6377 172.451 25.6013 172.373 25.5486C172.294 25.4957 172.226 25.4364 172.171 25.3773L178.019 19.9187ZM172.599 17.688C170.679 17.688 168.714 18.2962 167.195 19.8679L172.947 25.4281C172.9 25.4764 172.841 25.5262 172.773 25.5711C172.705 25.616 172.64 25.6472 172.587 25.6674C172.48 25.7081 172.464 25.688 172.599 25.688V17.688ZM167.193 19.8696C165.659 21.4587 165.175 23.4765 165.175 25.304H173.175C173.175 25.0654 173.207 25.0022 173.189 25.0546C173.179 25.0833 173.157 25.1385 173.115 25.2092C173.072 25.2809 173.017 25.3557 172.948 25.4264L167.193 19.8696ZM165.175 25.304V35H173.175V25.304H165.175ZM169.175 31H163.703V39H169.175V31ZM167.703 35V17.144H159.703V35H167.703ZM163.703 21.144H169.175V13.144H163.703V21.144ZM165.175 17.144V19.384H173.175V17.144H165.175ZM172.386 21.7693C172.525 21.5819 172.724 21.4006 173.07 21.2354L169.631 14.0126C168.186 14.7007 166.934 15.6927 165.964 16.9987L172.386 21.7693ZM173.14 21.2017C173.412 21.0653 173.801 20.952 174.391 20.952V12.952C172.72 12.952 171.081 13.2867 169.562 14.0463L173.14 21.2017ZM174.391 20.952C175.146 20.952 175.662 21.1085 176.044 21.3194L179.905 14.3126C178.197 13.3715 176.323 12.952 174.391 12.952V20.952ZM176.074 21.3356C176.467 21.5479 176.751 21.8237 176.981 22.2344L183.961 18.3256C182.996 16.603 181.616 15.2361 179.875 14.2964L176.074 21.3356ZM183.854 22.4132C184.107 22.0133 184.462 21.6553 185.006 21.3401L180.992 14.4199C179.402 15.342 178.072 16.584 177.087 18.1468L183.854 22.4132ZM185.006 21.3401C185.449 21.0827 185.918 20.952 186.487 20.952V12.952C184.539 12.952 182.681 13.44 180.992 14.4199L185.006 21.3401Z" fill="#DAD4B5" mask="url(#path-1-outside-1_100_82)"/>
</svg>
