<svg width="25" height="25" viewBox="0 0 25 25" fill="none" xmlns="http://www.w3.org/2000/svg">
<path d="M20.8334 2.08334H4.16671C3.02087 2.08334 2.08337 3.02084 2.08337 4.16668V20.8333C2.08337 21.9792 3.02087 22.9167 4.16671 22.9167H20.8334C21.9792 22.9167 22.9167 21.9792 22.9167 20.8333V4.16668C22.9167 3.02084 21.9792 2.08334 20.8334 2.08334ZM20.8334 19.7917C20.8334 20.3646 20.3646 20.8333 19.7917 20.8333H18.75V19.7917C18.75 19.2188 18.2813 18.75 17.7084 18.75H16.5105C17.25 17.8646 17.7084 16.7813 17.7084 15.625C17.7084 13.6563 16.573 12.6667 15.7813 12.125C13.8438 10.8021 13.4584 9.22918 13.4375 8.25001C13.4271 7.83334 12.9896 7.59376 12.6355 7.80209C6.59379 11.375 7.27087 15.0938 7.29171 15.625C7.32296 16.625 7.80212 17.7813 8.58337 18.75H7.29171C6.71879 18.75 6.25004 19.2188 6.25004 19.7917V20.8333H5.20837C4.63546 20.8333 4.16671 20.3646 4.16671 19.7917V5.20834C4.16671 4.63543 4.63546 4.16668 5.20837 4.16668H19.7917C20.3646 4.16668 20.8334 4.63543 20.8334 5.20834V19.7917ZM13.75 14.3125C13.6667 13.8333 13.6771 13.4271 13.8334 12.9792C14.3959 14.2396 16.073 14.6875 15.8959 16.2917C15.698 18.0521 13.698 18.7604 12.3646 17.6667C13.1563 17.4167 13.823 16.5833 13.9584 15.9688C14.0834 15.3958 13.8438 14.8854 13.75 14.3125Z" fill="#952323"/>
</svg>
